<?xml version="1.0" encoding="utf-8"?>
<!-- Generator: Adobe Illustrator 15.0.0, SVG Export Plug-In . SVG Version: 6.00 Build 0)  -->
<!DOCTYPE svg PUBLIC "-//W3C//DTD SVG 1.1//EN" "http://www.w3.org/Graphics/SVG/1.1/DTD/svg11.dtd">
<svg version="1.1" xmlns="http://www.w3.org/2000/svg" xmlns:xlink="http://www.w3.org/1999/xlink" x="0px" y="0px" width="1280px"
	 height="800px" viewBox="0 0 1280 800" enable-background="new 0 0 1280 800" xml:space="preserve">
<g id="text">
	<g>
		<path fill-rule="evenodd" clip-rule="evenodd" fill="#FFFFFF" d="M540.221,370.622c0.8,0,1.6,0,2.4,0
			c0.806,0.555,2.636,0.084,3.84,0.24c12.33,0.55,21.651,4.108,29.52,9.12c-2.531,5.229-5.633,9.887-8.16,15.12
			c-9.242-6.972-32.045-11.021-42-1.92c-4.402,4.025-5.864,9.541-6.48,17.041c-0.559,2.96-0.081,6.959-0.24,10.319
			c11.04,0,22.08,0,33.12,0c0,0.4,0,0.8,0,1.2c0,0.72,0,1.44,0,2.16c-0.547,0.333-0.089,1.67-0.24,2.399c0,0.721,0,1.44,0,2.16
			c-0.547,0.333-0.089,1.671-0.24,2.4c0.049,2.209-0.42,3.899-0.24,6.24c-1.12,0-2.24,0-3.36,0c-1.2,0-2.4,0-3.6,0
			c-0.727-0.555-2.476-0.085-3.6-0.24c-1.2,0-2.4,0-3.6,0c-0.726-0.554-2.476-0.085-3.6-0.24c-1.2,0-2.4,0-3.6,0
			c-0.647-0.553-2.314-0.085-3.36-0.24c-1.2,0-2.4,0-3.6,0c-0.726-0.554-2.475-0.084-3.6-0.239c-0.08,0-0.16,0-0.24,0
			c-0.56,30.399-0.08,61.84-0.24,92.64c-6.72,0-13.44,0-20.16,0c0-30.48,0-60.96,0-91.44c-6.033-1.086-12.335-1.904-18.72-2.64
			c0-4.72,0-9.44,0-14.16c6.16-0.159,12.96,0.32,18.72-0.24c-0.846-16.605,3.107-28.412,10.56-36.72c0.98-0.779,1.86-1.66,2.64-2.64
			c6.331-5.43,14.213-9.308,25.2-10.08C538.228,370.709,539.731,371.173,540.221,370.622z"/>
		<path fill-rule="evenodd" clip-rule="evenodd" fill="#FFFFFF" d="M66.221,388.142c7.92-0.4,17.52-0.4,25.44,0
			C83.181,388.142,74.701,388.142,66.221,388.142z"/>
		<path fill-rule="evenodd" clip-rule="evenodd" fill="#FFFFFF" d="M178.301,388.142c7.68-0.4,17.04-0.4,24.72,0
			C194.781,388.142,186.541,388.142,178.301,388.142z"/>
		<path fill-rule="evenodd" clip-rule="evenodd" fill="#FFFFFF" d="M66.221,388.142c8.48,0,16.96,0,25.44,0
			c14.303,21.218,28.576,42.463,42.72,63.84c14.996-20.925,29.186-42.654,43.92-63.84c8.24,0,16.48,0,24.72,0
			c0,46.88,0,93.76,0,140.64c-6.64,0-13.28,0-19.92,0c0-26.64,0-53.28,0-79.92c0-3.28,0-6.561,0-9.84
			c0.559-2.801,0.081-6.64,0.24-9.84c0-3.28,0-6.561,0-9.841c0.399-1.363,0.399-4.396,0-5.76c-0.574,0.146-1.741-0.301-1.92,0.24
			c-14.42,20.94-28.611,42.108-43.2,62.88c-1.982-0.567-5.381,0.745-7.68,0c-1.554-0.503-4.296-5.485-5.76-7.68
			c-11.748-17.617-23.387-34.59-35.28-52.08c-0.832-1.224-1.436-3.348-3.36-3.36c-1.115,4.484-0.163,11.037-0.48,16.32
			c0,32.959,0,65.92,0,98.88c-6.48,0-12.96,0-19.44,0C66.221,481.902,66.221,435.021,66.221,388.142z"/>
		<path fill-rule="evenodd" clip-rule="evenodd" fill="#FFFFFF" d="M700.301,437.103c-5.333-0.747-10.527-1.634-16.08-2.16
			c0.556-1.826-0.728-5.062,0-7.2c0.565-1.664,5.047-3.707,7.2-5.04c2.592-1.604,5.774-3.021,7.439-4.56
			c1.466-1.354,2.74-4.136,4.08-6.24c4.016-6.306,7.887-12.392,12-18.48c2.213,0.427,4.624,0.657,6.721,1.2c0,8.561,0,17.12,0,25.68
			c13.84,0.561,28.72,0.08,42.96,0.24c0,0.24,0,0.48,0,0.72c0,1.04,0,2.08,0,3.12c-0.553,0.568-0.086,2.154-0.24,3.12
			c0,1.04,0,2.08,0,3.12c-0.552,0.568-0.086,2.154-0.24,3.12c0,0.96,0,1.92,0,2.88c-0.187,0.053-0.279,0.201-0.24,0.48
			c-0.8,0-1.6,0-2.399,0s-1.601,0-2.4,0c-0.41-0.55-1.832-0.089-2.64-0.24c-0.88,0-1.76,0-2.641,0c-0.41-0.55-1.831-0.088-2.64-0.24
			c-0.88,0-1.76,0-2.64,0c-0.411-0.549-1.832-0.088-2.641-0.24c-0.88,0-1.76,0-2.64,0c-0.411-0.549-1.832-0.088-2.64-0.239
			c-0.88,0-1.76,0-2.641,0c-0.332-0.548-1.67-0.09-2.399-0.24c-0.88,0-1.761,0-2.641,0c-0.41-0.55-1.832-0.088-2.64-0.24
			c-0.88,0-1.76,0-2.64,0c-0.411-0.549-1.832-0.088-2.641-0.24c-1.254,0.055-2.396-0.004-3.359-0.239
			c0.936,18.2-1.237,42.271,0,60.72c0.73,10.892,6.624,17.883,17.52,18.72c1.364,0.399,4.396,0.399,5.76,0
			c9.363-0.237,15.09-4.11,21.601-7.2c1.952,4.848,4.18,9.421,6.24,14.16c-9.909,8.33-30.699,12.083-47.04,7.68
			c-15.175-4.088-23.759-15.501-24.48-33.359c-0.16-19.521,0.32-39.68-0.24-58.8C700.781,437.103,700.541,437.103,700.301,437.103z"
			/>
		<path fill-rule="evenodd" clip-rule="evenodd" fill="#FFFFFF" d="M278.381,418.382c0.571-0.398,2.789-0.398,3.36,0
			C280.621,418.382,279.501,418.382,278.381,418.382z"/>
		<path fill-rule="evenodd" clip-rule="evenodd" fill="#FFFFFF" d="M828.94,418.382c0.649-0.398,2.951-0.398,3.601,0
			C831.341,418.382,830.141,418.382,828.94,418.382z"/>
		<path fill-rule="evenodd" clip-rule="evenodd" fill="#FFFFFF" d="M942.701,418.382c0.649-0.398,2.95-0.398,3.6,0
			C945.101,418.382,943.9,418.382,942.701,418.382z"/>
		<path fill-rule="evenodd" clip-rule="evenodd" fill="#FFFFFF" d="M274.061,418.382c1.44,0,2.88,0,4.32,0c1.12,0,2.24,0,3.36,0
			c26.419,0.222,44.412,8.868,45.12,34.801c0.16,16.72-0.32,34.079,0.24,50.399c-0.412,8.412,4.671,11.329,13.2,10.8
			c0,4.801,0,9.601,0,14.4c-0.279-0.039-0.427,0.053-0.48,0.24c-7.875,2.26-18.374,3.351-23.52-1.681
			c-3.412-3.335-4.57-7.806-5.28-13.68c-2.2,1.22-3.873,3.86-6.24,5.76c-14.198,11.393-49.813,17.63-66.96,3.12
			c-0.94-1.14-1.979-2.18-3.12-3.12c-5.083-5.907-7.869-15.01-6.96-25.199c0.88-9.869,5.157-17.107,10.08-22.32
			c16.408-4.792,34.579-7.822,54.96-8.641c0.808-0.151,2.229,0.31,2.64-0.239c0.96,0,1.92,0,2.88,0
			c1.125-0.155,2.874,0.313,3.6-0.24c1.84,0,3.68,0,5.52,0c2.141-20.221-7.793-28.367-26.64-27.6c-0.414-0.398-2.466-0.398-2.88,0
			c-16.081-0.001-27.971,4.188-39.6,8.64c-1.209-5.352-2.812-10.309-4.08-15.6c10.565-5.115,22.728-8.633,37.44-9.601
			C272.39,418.472,273.728,418.93,274.061,418.382z M248.141,498.542c1.224,23.896,38.208,16.126,51.36,7.681
			c2.553-1.64,7.377-4.556,7.92-6.24c1.026-3.186,0-7.824,0-11.28c0-3.871,0-7.612,0-11.52c-1.157,0.442-3.037,0.162-4.56,0.239
			c-1.045,0.155-2.713-0.313-3.36,0.24c-0.96,0-1.92,0-2.88,0c-0.729,0.15-2.067-0.308-2.4,0.24c-15.487,0.433-29.088,2.751-42,5.76
			c-2.035,3.085-4.024,6.216-4.08,11.28C247.742,495.592,247.742,497.893,248.141,498.542z"/>
		<path fill-rule="evenodd" clip-rule="evenodd" fill="#FFFFFF" d="M789.82,467.582c-3.92-4.955-6.334-11.903-5.76-19.92
			c1.502-20.937,22.867-28.882,44.88-29.28c1.2,0,2.4,0,3.601,0c1.6,0,3.2,0,4.8,0c0.411,0.55,1.832,0.088,2.64,0.24
			c11.223,0.618,20.675,3.006,29.04,6.48c-1.728,5.472-4.278,10.121-6,15.6c-7.828-3.531-16.404-6.315-27.6-6.479
			c-0.727-0.555-2.476-0.085-3.601-0.24c-1.039,0-2.079,0-3.119,0c-1.046,0.154-2.713-0.313-3.36,0.24
			c-10.001,0.577-18.95,2.705-21.6,10.079c-1.592,4.43,0.002,10.173,2.88,12.721c5.123,4.535,16.916,5.535,26.64,6.72
			c19.149,2.334,36.962,8.852,40.56,25.68c1.854,8.666,0.683,19.471-5.039,26.641c-1.293,1.427-2.653,2.787-4.08,4.08
			c-11.073,8.446-27.699,11.341-47.761,10.8c-0.332-0.548-1.67-0.09-2.399-0.24c-12.158-0.482-21.896-3.384-30.96-6.96
			c1.654-5.546,3.315-11.084,5.04-16.56c12.57,7.442,44.377,10.954,59.04,3.119c5.643-3.015,11.345-11.759,6.239-20.159
			c-4.787-7.879-19.831-8.166-31.439-9.601c-12.261-1.515-22.819-4.753-30.24-10.56C791.521,469.082,790.722,468.281,789.82,467.582
			z"/>
		<path fill-rule="evenodd" clip-rule="evenodd" fill="#FFFFFF" d="M938.381,418.382c1.439,0,2.88,0,4.32,0c1.199,0,2.399,0,3.6,0
			c23.039,1.084,37.243,4.99,42.96,22.801c2.836,8.833,2.159,19.507,2.16,30.72c0,10.919-0.875,22.383,0,32.88
			c0.576,6.917,4.968,10.424,13.44,9.6c0,4.801,0,9.601,0,14.4c-6.39,1.606-15.231,3.762-21.12,0.72
			c-5.384-2.78-7.458-8.728-8.4-15.84c-0.162-0.525-0.798,0.455-0.96,0.72c-1.301,1.101-2.5,2.3-3.6,3.601
			c-10.426,9.345-28.314,14.616-47.28,12.72c-17.853-1.785-30.233-11.736-31.44-30.24c0-1.76,0-3.52,0-5.279
			c0.571-10.629,4.953-17.448,10.32-23.28c16.35-4.851,34.587-7.813,54.96-8.641c0.729-0.15,2.067,0.308,2.4-0.239
			c1.04,0,2.08,0,3.12,0c1.124-0.155,2.873,0.313,3.6-0.24c1.6,0,3.2,0,4.8,0c0.24,0,0.48,0,0.72,0
			c-0.158-2.562,0.319-5.759-0.239-7.92c-0.198-15.243-10.984-19.896-26.641-19.68c-0.336-0.398-2.304-0.398-2.64,0
			c-16.063,0.017-28.085,4.075-39.6,8.64c-1.49-5.311-2.982-10.618-4.32-16.08c11.298-4.222,22.678-8.362,37.439-9.12
			C936.71,418.472,938.048,418.93,938.381,418.382z M971.501,477.422c-1.44,0-2.88,0-4.32,0c-1.045,0.155-2.713-0.313-3.36,0.24
			c-0.88,0-1.76,0-2.64,0c-0.808,0.152-2.229-0.31-2.64,0.24c-15.388,0.452-28.959,2.722-41.76,5.76
			c-5.127,4.595-5.549,17.708-1.92,23.28c2.84,4.362,8.9,6.994,15.119,7.439c16.937,1.214,33.426-5.802,41.28-13.68
			c0.146-0.014,0.284-0.036,0.24-0.24c1.114-6.726,0.164-15.516,0.479-23.04C971.978,477.18,971.561,477.12,971.501,477.422z"/>
		<path fill-rule="evenodd" clip-rule="evenodd" fill="#FFFFFF" d="M480.221,420.542c5.76-0.56,12.56-0.08,18.72-0.24
			C493.181,420.862,486.381,420.383,480.221,420.542z"/>
		<path fill-rule="evenodd" clip-rule="evenodd" fill="#FFFFFF" d="M359.261,487.982c0-22.48,0-44.961,0-67.44
			c6.72,0,13.44,0,20.16,0c0,12.309,0,25.87,0,39.36c0,21.107-2.634,44.88,11.04,52.08c13.645,7.185,36.354-0.469,43.92-8.88
			c1.3-1.101,2.5-2.3,3.6-3.601c1.098-1.769,3.117-2.619,3.6-4.56c0.613-2.466,0-6.075,0-9.36c0-20.896,0-44.645,0-65.04
			c6.72,0,13.44,0,20.16,0c0,36.08,0,72.16,0,108.24c-5.84,0-11.68,0-17.52,0c-0.327-5.593-0.902-10.938-1.2-16.56
			c-1.257,0.266-2.42,2.697-3.6,3.84c-1.141,0.939-2.18,1.979-3.12,3.12c-10.905,10.851-34.136,15.218-52.08,8.88
			C368.141,522.382,360.376,508.305,359.261,487.982z"/>
		<path fill-rule="evenodd" clip-rule="evenodd" fill="#FFFFFF" d="M564.221,420.542c6.72,0,13.44,0,20.16,0
			c0.16,21.36-0.32,43.36,0.24,64.32c0.251,16.235,4.771,28.353,19.92,29.52c14.625,1.127,28.334-4.001,35.52-11.76
			c1.061-0.859,2.021-1.819,2.88-2.88c1.203-1.438,2.582-2.698,3.601-4.32c0.56-24.479,0.08-50,0.24-74.88c6.72,0,13.439,0,20.159,0
			c0,36.08,0,72.16,0,108.24c-5.84,0-11.68,0-17.52,0c-0.408-5.592-0.941-11.059-1.2-16.8c-7.576,9.898-20.087,18.393-38.16,18.96
			c-12.73,0.399-24.701-2.768-32.4-9.601c-0.699-0.9-1.5-1.7-2.4-2.399c-6.366-7.394-10.113-17.407-10.8-30.48
			c-0.155-1.124,0.313-2.874-0.24-3.6C564.221,463.422,564.221,441.982,564.221,420.542z"/>
		<path fill-rule="evenodd" clip-rule="evenodd" fill="#FFFFFF" d="M764.621,424.382c-0.154,0.966,0.312,2.553-0.24,3.12
			C764.535,426.536,764.068,424.95,764.621,424.382z"/>
		<path fill-rule="evenodd" clip-rule="evenodd" fill="#FFFFFF" d="M183.341,429.183c-0.159,3.2,0.319,7.039-0.24,9.84
			C183.26,435.821,182.782,431.983,183.341,429.183z"/>
		<path fill-rule="evenodd" clip-rule="evenodd" fill="#FFFFFF" d="M85.661,429.902c0.4,32.4,0.4,66.479,0,98.88
			C85.661,495.822,85.661,462.861,85.661,429.902z"/>
		<path fill-rule="evenodd" clip-rule="evenodd" fill="#FFFFFF" d="M764.381,430.622c-0.154,0.966,0.312,2.552-0.24,3.12
			C764.295,432.776,763.829,431.19,764.381,430.622z"/>
		<path fill-rule="evenodd" clip-rule="evenodd" fill="#FFFFFF" d="M825.341,434.223c0.647-0.554,2.314-0.086,3.36-0.24
			C828.054,434.535,826.386,434.067,825.341,434.223z"/>
		<path fill-rule="evenodd" clip-rule="evenodd" fill="#FFFFFF" d="M835.421,434.223c-1.125-0.156-2.874,0.313-3.601-0.24
			C832.945,434.138,834.694,433.668,835.421,434.223z"/>
		<path fill-rule="evenodd" clip-rule="evenodd" fill="#FFFFFF" d="M942.461,435.183c0.336-0.398,2.304-0.398,2.64,0
			C944.221,435.183,943.341,435.183,942.461,435.183z"/>
		<path fill-rule="evenodd" clip-rule="evenodd" fill="#FFFFFF" d="M737.98,436.143c-0.729-0.151-2.066,0.307-2.399-0.24
			C736.311,436.053,737.648,435.595,737.98,436.143z"/>
		<path fill-rule="evenodd" clip-rule="evenodd" fill="#FFFFFF" d="M740.621,436.143c0.808,0.151,2.229-0.31,2.64,0.239
			C742.453,436.23,741.031,436.691,740.621,436.143z"/>
		<path fill-rule="evenodd" clip-rule="evenodd" fill="#FFFFFF" d="M530.141,436.622c-1.045-0.154-2.713,0.313-3.36-0.24
			C527.826,436.537,529.494,436.069,530.141,436.622z"/>
		<path fill-rule="evenodd" clip-rule="evenodd" fill="#FFFFFF" d="M745.9,436.382c0.809,0.152,2.229-0.309,2.641,0.24
			C747.732,436.47,746.312,436.932,745.9,436.382z"/>
		<path fill-rule="evenodd" clip-rule="evenodd" fill="#FFFFFF" d="M533.741,436.622c1.125,0.155,2.874-0.313,3.6,0.24
			C536.216,436.707,534.467,437.176,533.741,436.622z"/>
		<path fill-rule="evenodd" clip-rule="evenodd" fill="#FFFFFF" d="M540.941,436.862c1.125,0.155,2.874-0.314,3.6,0.24
			C543.416,436.946,541.667,437.416,540.941,436.862z"/>
		<path fill-rule="evenodd" clip-rule="evenodd" fill="#FFFFFF" d="M548.141,437.103c1.12,0,2.24,0,3.36,0
			C550.93,437.501,548.711,437.501,548.141,437.103z"/>
		<path fill-rule="evenodd" clip-rule="evenodd" fill="#FFFFFF" d="M183.101,448.862c0,26.64,0,53.28,0,79.92
			C182.701,502.702,182.701,474.941,183.101,448.862z"/>
		<path fill-rule="evenodd" clip-rule="evenodd" fill="#FFFFFF" d="M326.861,453.183c0.56,16.319,0.08,33.68,0.24,50.399
			C326.541,487.262,327.021,469.902,326.861,453.183z"/>
		<path fill-rule="evenodd" clip-rule="evenodd" fill="#FFFFFF" d="M298.301,463.022c0.726-0.554,2.476-0.085,3.6-0.24
			C301.175,463.336,299.425,462.867,298.301,463.022z"/>
		<path fill-rule="evenodd" clip-rule="evenodd" fill="#FFFFFF" d="M957.341,463.262c0.333-0.547,1.671-0.089,2.4-0.239
			C959.408,463.569,958.07,463.111,957.341,463.262z"/>
		<path fill-rule="evenodd" clip-rule="evenodd" fill="#FFFFFF" d="M299.501,477.662c0.647-0.553,2.314-0.085,3.36-0.24
			C302.214,477.976,300.546,477.508,299.501,477.662z"/>
		<path fill-rule="evenodd" clip-rule="evenodd" fill="#FFFFFF" d="M564.221,484.862c0.554,0.726,0.085,2.476,0.24,3.6
			C563.907,487.736,564.376,485.986,564.221,484.862z"/>
		<path fill-rule="evenodd" clip-rule="evenodd" fill="#FFFFFF" d="M248.141,494.942c0,1.2,0,2.399,0,3.6
			C247.742,497.893,247.742,495.592,248.141,494.942z"/>
		<path fill-rule="evenodd" clip-rule="evenodd" fill="#FFFFFF" d="M892.061,500.462c-0.399-1.204-0.399-4.075,0-5.279
			C892.061,496.942,892.061,498.702,892.061,500.462z"/>
		<path fill-rule="evenodd" clip-rule="evenodd" fill="#FFFFFF" d="M816.94,530.942c-0.729-0.15-2.067,0.307-2.399-0.24
			C815.271,530.853,816.608,530.395,816.94,530.942z"/>
		<path fill-rule="evenodd" clip-rule="evenodd" fill="#FFFFFF" d="M509.501,383.582c0.779-0.98,1.659-1.86,2.64-2.64
			C511.361,381.922,510.481,382.803,509.501,383.582z"/>
		<path fill-rule="evenodd" clip-rule="evenodd" fill="#FFFFFF" d="M519.341,410.223c0,3.279,0,6.56,0,9.84
			c6.633,0.428,17.032,0.239,25.68,0.239c1.975,0,8.581-0.818,7.2,1.44c0-0.4,0-0.8,0-1.2c-11.04,0-22.08,0-33.12,0
			C519.26,417.182,518.782,413.183,519.341,410.223z"/>
		<path fill-rule="evenodd" clip-rule="evenodd" fill="#FFFFFF" d="M519.341,436.143c0,27.041,0,58.257,0,86.88
			c0,1.829,0.233,5.48,0,5.76c-0.747,0.895-8.94,0.24-10.32,0.24c-3.659,0-6.941,0.194-10.08-0.24c6.72,0,13.44,0,20.16,0
			C519.261,497.982,518.781,466.542,519.341,436.143z"/>
		<path fill-rule="evenodd" clip-rule="evenodd" fill="#FFFFFF" d="M181.421,413.822c0.179-0.541,1.346-0.094,1.92-0.24
			c0.399,1.364,0.399,4.396,0,5.76C182.846,417.356,184.747,412.977,181.421,413.822z"/>
		<path fill-rule="evenodd" clip-rule="evenodd" fill="#FFFFFF" d="M700.301,437.103c0.24,0,0.48,0,0.72,0
			c0.561,19.12,0.08,39.279,0.24,58.8c-0.434-14.967-0.239-34.618-0.24-51.36c0-2.26,0.485-5.959,0-7.2
			C700.982,437.244,700.109,437.473,700.301,437.103z"/>
		<path fill-rule="evenodd" clip-rule="evenodd" fill="#FFFFFF" d="M721.661,420.302c9.521,0,21.808,0,32.88,0
			c2.344,0,10.75-0.633,10.08,0.96c0-0.239,0-0.479,0-0.72C750.381,420.382,735.501,420.862,721.661,420.302z"/>
		<path fill-rule="evenodd" clip-rule="evenodd" fill="#FFFFFF" d="M761.501,437.103c0.8,0,1.6,0,2.399,0
			c-0.039-0.279,0.054-0.428,0.24-0.48C764.367,437.739,761.942,437.45,761.501,437.103z"/>
		<path fill-rule="evenodd" clip-rule="evenodd" fill="#FFFFFF" d="M234.701,519.422c1.141,0.94,2.18,1.98,3.12,3.12
			C236.681,521.603,235.641,520.563,234.701,519.422z"/>
		<path fill-rule="evenodd" clip-rule="evenodd" fill="#FFFFFF" d="M340.301,514.382c-0.556,3.673,1.662,11.582,0,14.641
			c-0.037,0.066-0.415-0.052-0.48,0c0.053-0.188,0.201-0.279,0.48-0.24C340.301,523.982,340.301,519.183,340.301,514.382z"/>
		<path fill-rule="evenodd" clip-rule="evenodd" fill="#FFFFFF" d="M789.82,467.582c0.901,0.699,1.701,1.5,2.4,2.4
			C791.32,469.282,790.521,468.482,789.82,467.582z"/>
		<path fill-rule="evenodd" clip-rule="evenodd" fill="#FFFFFF" d="M864.701,520.143c1.427-1.293,2.787-2.653,4.08-4.08
			C867.698,517.699,866.338,519.06,864.701,520.143z"/>
		<path fill-rule="evenodd" clip-rule="evenodd" fill="#FFFFFF" d="M971.741,454.862c0.559,2.161,0.081,5.358,0.239,7.92
			c-0.239,0-0.479,0-0.72,0C972.322,461.044,971.463,457.385,971.741,454.862z"/>
		<path fill-rule="evenodd" clip-rule="evenodd" fill="#FFFFFF" d="M970.781,517.982c1.1-1.301,2.299-2.5,3.6-3.601
			C973.281,515.683,972.081,516.883,970.781,517.982z"/>
		<path fill-rule="evenodd" clip-rule="evenodd" fill="#FFFFFF" d="M436.301,519.183c0.94-1.141,1.979-2.181,3.12-3.12
			C438.481,517.202,437.441,518.242,436.301,519.183z"/>
		<path fill-rule="evenodd" clip-rule="evenodd" fill="#FFFFFF" d="M434.381,503.103c1.1-1.301,2.3-2.501,3.6-3.601
			C436.881,500.803,435.681,502.002,434.381,503.103z"/>
		<path fill-rule="evenodd" clip-rule="evenodd" fill="#FFFFFF" d="M359.261,487.982c-0.434-17.359-0.24-39.536-0.24-59.04
			c0-1.731-0.498-7.805,0-8.4c0.785-0.94,8.969-0.24,10.32-0.24c4.104,0,7.088-0.19,10.08,0.24c-6.72,0-13.44,0-20.16,0
			C359.261,443.021,359.261,465.502,359.261,487.982z"/>
		<path fill-rule="evenodd" clip-rule="evenodd" fill="#FFFFFF" d="M441.581,420.542c4.146-0.429,9.477-0.24,15.12-0.24
			c1.368,0,4.603-0.365,5.04,0c0.967,0.808,0.24,11.652,0.24,13.44c-0.001,31.021,0.197,65.579-0.24,95.04c0-36.08,0-72.16,0-108.24
			C455.021,420.542,448.301,420.542,441.581,420.542z"/>
		<path fill-rule="evenodd" clip-rule="evenodd" fill="#FFFFFF" d="M575.261,518.942c0.9,0.699,1.701,1.499,2.4,2.399
			C576.76,520.643,575.96,519.843,575.261,518.942z"/>
		<path fill-rule="evenodd" clip-rule="evenodd" fill="#FFFFFF" d="M640.061,502.622c0.859-1.061,1.82-2.021,2.88-2.88
			C642.081,500.803,641.121,501.763,640.061,502.622z"/>
		<path fill-rule="evenodd" clip-rule="evenodd" fill="#FFFFFF" d="M564.221,420.542c6.242-0.401,14.157-0.397,20.4,0
			c0,21.44,0,42.88,0,64.32c-0.56-20.96-0.08-42.96-0.24-64.32C577.661,420.542,570.941,420.542,564.221,420.542z"/>
		<path fill-rule="evenodd" clip-rule="evenodd" fill="#FFFFFF" d="M646.541,495.422c0.159-24.96-0.32-50.56,0.24-75.12
			c6.64,0.16,13.919-0.319,20.159,0.24c-6.72,0-13.439,0-20.159,0C646.621,445.422,647.101,470.942,646.541,495.422z"/>
		<path fill-rule="evenodd" clip-rule="evenodd" fill="#FFFFFF" d="M971.501,477.422c0.06-0.302,0.477-0.242,0.479,0
			c-0.315,7.524,0.635,16.314-0.479,23.04c0.558-7.202,0.081-15.438,0.24-23.04C971.661,477.422,971.581,477.422,971.501,477.422z"
			/>
		<path fill-rule="evenodd" clip-rule="evenodd" fill="#FFFFFF" d="M537.341,370.862c0.489-0.551,1.993-0.087,2.88-0.24
			C539.731,371.173,538.228,370.709,537.341,370.862z"/>
		<path fill-rule="evenodd" clip-rule="evenodd" fill="#FFFFFF" d="M271.661,418.622c0.333-0.547,1.67-0.09,2.4-0.24
			C273.728,418.93,272.39,418.472,271.661,418.622z"/>
		<path fill-rule="evenodd" clip-rule="evenodd" fill="#FFFFFF" d="M935.98,418.622c0.333-0.547,1.671-0.09,2.4-0.24
			C938.048,418.93,936.71,418.472,935.98,418.622z"/>
		<path fill-rule="evenodd" clip-rule="evenodd" fill="#FFFFFF" d="M552.221,423.902c-0.15,0.729,0.308,2.067-0.24,2.399
			C552.131,425.572,551.673,424.235,552.221,423.902z"/>
		<path fill-rule="evenodd" clip-rule="evenodd" fill="#FFFFFF" d="M551.981,428.462c-0.151,0.729,0.307,2.067-0.24,2.4
			C551.892,430.133,551.434,428.795,551.981,428.462z"/>
		<path fill-rule="evenodd" clip-rule="evenodd" fill="#FFFFFF" d="M725.021,435.422c0.809,0.152,2.229-0.309,2.641,0.24
			C726.853,435.51,725.432,435.972,725.021,435.422z"/>
		<path fill-rule="evenodd" clip-rule="evenodd" fill="#FFFFFF" d="M730.301,435.662c0.808,0.152,2.229-0.31,2.64,0.24
			C732.133,435.75,730.712,436.211,730.301,435.662z"/>
		<path fill-rule="evenodd" clip-rule="evenodd" fill="#FFFFFF" d="M519.581,436.143c1.125,0.155,2.874-0.314,3.6,0.239
			C522.056,436.227,520.307,436.696,519.581,436.143z"/>
		<path fill-rule="evenodd" clip-rule="evenodd" fill="#FFFFFF" d="M751.181,436.622c0.809,0.152,2.229-0.31,2.64,0.24
			C753.013,436.71,751.592,437.172,751.181,436.622z"/>
		<path fill-rule="evenodd" clip-rule="evenodd" fill="#FFFFFF" d="M756.461,436.862c0.808,0.151,2.229-0.31,2.64,0.24
			C758.293,436.95,756.871,437.411,756.461,436.862z"/>
		<path fill-rule="evenodd" clip-rule="evenodd" fill="#FFFFFF" d="M962.861,463.022c0.726-0.554,2.475-0.085,3.6-0.24
			C965.734,463.336,963.985,462.867,962.861,463.022z"/>
		<path fill-rule="evenodd" clip-rule="evenodd" fill="#FFFFFF" d="M292.781,463.262c0.411-0.549,1.832-0.088,2.64-0.239
			C295.01,463.571,293.589,463.11,292.781,463.262z"/>
		<path fill-rule="evenodd" clip-rule="evenodd" fill="#FFFFFF" d="M294.221,477.902c0.333-0.548,1.67-0.09,2.4-0.24
			C296.288,478.209,294.95,477.752,294.221,477.902z"/>
		<path fill-rule="evenodd" clip-rule="evenodd" fill="#FFFFFF" d="M542.621,370.622c1.204,0.156,3.035-0.314,3.84,0.24
			C545.257,370.706,543.426,371.177,542.621,370.622z"/>
		<path fill-rule="evenodd" clip-rule="evenodd" fill="#FFFFFF" d="M837.341,418.382c0.808,0.152,2.229-0.309,2.64,0.24
			C839.173,418.47,837.752,418.932,837.341,418.382z"/>
		<path fill-rule="evenodd" clip-rule="evenodd" fill="#FFFFFF" d="M277.901,435.183c0.414-0.398,2.466-0.398,2.88,0
			C279.821,435.183,278.861,435.183,277.901,435.183z"/>
		<path fill-rule="evenodd" clip-rule="evenodd" fill="#FFFFFF" d="M963.82,477.662c0.647-0.553,2.315-0.085,3.36-0.24
			C966.534,477.976,964.866,477.508,963.82,477.662z"/>
		<path fill-rule="evenodd" clip-rule="evenodd" fill="#FFFFFF" d="M958.541,477.902c0.41-0.55,1.832-0.088,2.64-0.24
			C960.77,478.211,959.349,477.75,958.541,477.902z"/>
		<path fill-rule="evenodd" clip-rule="evenodd" fill="#FFFFFF" d="M739.181,514.622c1.92,0,3.84,0,5.76,0
			C743.576,515.021,740.545,515.021,739.181,514.622z"/>
	</g>
</g>
<g id="ball">
	<path fill-rule="evenodd" clip-rule="evenodd" fill="#FFFFFF" d="M1127.35,619.85c-4.399-1.6-9.183-2.399-14.35-2.399
		c-5.133,0-9.883,0.8-14.25,2.399c-3.867,2.767-6.233,6.217-7.1,10.351c-4.7-0.5-8.283,0.5-10.75,3
		c-5.733,7.1-8.601,15.383-8.601,24.85c0,1.334,0.067,2.601,0.2,3.8c1.667,4.101,3.55,6.9,5.65,8.4c-1.167,2.467-1.2,5.4-0.101,8.8
		c1.733,2.733,3.817,5.283,6.25,7.65c6.033,6.033,12.967,9.8,20.8,11.3c3.033,0.3,5.45-0.35,7.25-1.95c1.601,1.601,4,2.334,7.2,2.2
		c8.4-1.267,15.817-5.116,22.25-11.55c1.867-1.9,3.55-3.9,5.05-6c0.101-0.167,0.184-0.334,0.25-0.5
		c1.467-2.334,1.167-5.351-0.899-9.05c2.967-2.2,5.383-5.367,7.25-9.5c0.066-1.2,0.1-2.4,0.1-3.601c0-9.166-2.633-17.25-7.899-24.25
		c-3.567-2.866-7.434-3.85-11.601-2.95C1132.95,625.483,1130.717,621.816,1127.35,619.85z M1071.35,658.05
		c0-11.533,4.067-21.333,12.2-29.399c8.167-8.233,18.017-12.351,29.55-12.351c11.567,0,21.367,4.117,29.4,12.351
		c8.2,8.066,12.3,17.866,12.3,29.399c0,11.566-4.1,21.434-12.3,29.601c-8.033,8.133-17.833,12.199-29.4,12.199
		c-11.533,0-21.383-4.066-29.55-12.199C1075.417,679.483,1071.35,669.616,1071.35,658.05z M1078.15,670.25
		c3.133-7.134,7.183-12.833,12.149-17.1c1.101,8.767,3.8,17.5,8.101,26.199C1089.3,677.583,1082.55,674.55,1078.15,670.25z
		 M1112.85,636.9c6.033-3.2,13.101-5.217,21.2-6.051c1.833,8,1.934,15.601,0.3,22.801c4.7,4.3,8.65,10.133,11.851,17.5
		c-7.033,4.833-14.101,7.566-21.2,8.199c-3.667,6.567-7.883,12.134-12.65,16.7c-7.066-5.6-11.717-11.166-13.949-16.7
		c8.533,1.2,17.399,1.2,26.6,0c4.533-7.767,7.65-16.333,9.35-25.699C1127.95,647.616,1120.783,642.033,1112.85,636.9
		c-8.833,4.899-16.35,10.316-22.55,16.25c-1.7-9.034-1.25-16.684,1.351-22.95C1098.517,631.467,1105.583,633.7,1112.85,636.9z"/>
</g>
<g id="kaki">
	<path fill-rule="evenodd" clip-rule="evenodd" fill="#FFFFFF" d="M1109.5,588.35c3.934,2.601,6.867,4.117,8.8,4.551l-0.75,16.899
		c7.9,1.5,13.934,4.684,18.101,9.55c0.3,2.4-3.45,2.434-11.25,0.101c-7.768-2.367-16.233-1.934-25.4,1.3
		c-9.1,3.233-10.816,2.384-5.15-2.55c5.634-4.9,11.884-7.783,18.75-8.65L1109.5,588.35z"/>
</g>
<g id="cock">
	<path fill-rule="evenodd" clip-rule="evenodd" fill="#D20000" d="M1047.75,419c0.6-0.366,1.3-0.55,2.1-0.55
		c0.9,0,1.617,0.184,2.15,0.55c0.667,0.4,1,0.833,1,1.3c0,0.533-0.333,1-1,1.4c-0.533,0.366-1.25,0.55-2.15,0.55
		c-0.8,0-1.5-0.184-2.1-0.55c-0.633-0.4-0.95-0.867-0.95-1.4C1046.8,419.833,1047.117,419.4,1047.75,419z"/>
	<path fill-rule="evenodd" clip-rule="evenodd" fill="#FFFFFF" d="M1033.35,388.9c-0.267,4.8,0.667,6.95,2.801,6.45
		c2.199-0.267,2.416-1.583,0.649-3.95c6.967-1.967,11.783-5.083,14.45-9.35c-2.5,4.567-3.25,7.367-2.25,8.4
		c5.043-1.729,9.043-4.378,12-7.95c1.207-1.466,2.24-3.083,3.1-4.85c4.163,8.438,3.13,14.122-3.1,17.05
		c-1.104,0.52-2.37,0.954-3.8,1.3c-15.833,2.767-24.783,7.3-26.851,13.6c-4.333,0.801-5.933-1.666-4.8-7.399
		c0.9-3.434,2.667-6.8,5.3-10.1L1033.35,388.9z M1192.55,431.85c11.533,19.467,8.884,41.117-7.95,64.95
		c9.768-46.8-2.8-67.717-37.699-62.75C1165.833,417.75,1181.05,417.017,1192.55,431.85z M1196.5,490.55
		c11.267-18.8,14.117-35.166,8.55-49.1C1219.283,456.417,1216.434,472.783,1196.5,490.55z M1161.15,557.05
		c-33.667,18.4-65.601,16.25-95.801-6.45c-1.528-1.18-2.979-2.472-4.35-3.875c-8.737-8.894-14.287-22.185-16.65-39.875
		c4.468,9.84,10.018,18.04,16.65,24.601c8.018,7.944,17.617,13.494,28.8,16.649c20.967,6.5,39.717,6.25,56.25-0.75
		c-29.066,4.601-52.633-0.433-70.7-15.1c-5.813-5.319-10.597-10.711-14.35-16.175c-13.67-19.918-13.67-40.81,0-62.675
		c0.05-0.087,0.1-0.171,0.15-0.25c7.232-11.134,10.816-24.284,10.75-39.45c12.866,13.366,17.399,28.983,13.6,46.85
		c-3.066,15.867-1.333,25.384,5.2,28.55c-2.333-11.666-2.167-22.449,0.5-32.35c4.2-19.767-1.934-36.95-18.4-51.55
		c13.7,4.399,22.434,16.733,26.2,37c2.467,15.166,4.184,28.967,5.15,41.399c1.933,23.934,18.05,34.851,48.35,32.75
		c20.633-2.5,35.816-9.966,45.55-22.399C1197.217,520.25,1184.917,541.283,1161.15,557.05z M1061,403.875
		c0.5,0.335,1,0.693,1.5,1.075c8.342,8.267,7.842,19.991-1.5,35.175c-3.126,5.091-7.243,10.565-12.35,16.425
		c-15.033-5.166-18.617-16.649-10.75-34.45c1.699-6.767-0.134-10.116-5.5-10.05C1041.723,400.096,1051.256,397.371,1061,403.875z
		 M1057.2,420.75c0-1.233-0.7-2.267-2.101-3.1c-1.366-0.801-3.017-1.2-4.949-1.2c-1.967,0-3.65,0.399-5.051,1.2
		c-1.333,0.833-2,1.866-2,3.1c0,1.167,0.667,2.2,2,3.1c1.4,0.834,3.084,1.25,5.051,1.25c1.933,0,3.583-0.416,4.949-1.25
		C1056.5,422.95,1057.2,421.917,1057.2,420.75z M1033.05,424.65c-7.3-3.867-12.916-3.534-16.85,1c1.767-6.434,6.434-10.817,14-13.15
		C1033.5,416.267,1034.45,420.316,1033.05,424.65z M1134.3,575.8c-10.833,6.066-16.233,12.983-16.2,20.75
		c-6.267-6.666-19.217-16.366-38.85-29.1C1097.283,576.15,1115.633,578.934,1134.3,575.8z"/>
</g>
<g id="eyes">
	<path fill-rule="evenodd" clip-rule="evenodd" fill="#FFFFFF" d="M1053.05,420.65c-0.165,0.292-0.448,0.559-0.85,0.8
		c-0.533,0.366-1.25,0.55-2.15,0.55c-0.8,0-1.5-0.184-2.1-0.55c-0.634-0.4-0.95-0.867-0.95-1.4c0-0.146,0.033-0.287,0.1-0.425
		c0.146-0.271,0.412-0.529,0.801-0.775c0.6-0.366,1.3-0.55,2.1-0.55c0.9,0,1.617,0.184,2.15,0.55c0.666,0.4,1,0.834,1,1.301
		C1053.15,420.326,1053.117,420.492,1053.05,420.65z"/>
</g>
</svg>
