<?xml version="1.0" encoding="utf-8"?>
<!-- Generator: Adobe Illustrator 15.0.0, SVG Export Plug-In . SVG Version: 6.00 Build 0)  -->
<!DOCTYPE svg PUBLIC "-//W3C//DTD SVG 1.1//EN" "http://www.w3.org/Graphics/SVG/1.1/DTD/svg11.dtd">
<svg version="1.1" xmlns="http://www.w3.org/2000/svg" xmlns:xlink="http://www.w3.org/1999/xlink" x="0px" y="0px" width="700px"
	 height="467px" viewBox="0 0 700 467" enable-background="new 0 0 700 467" xml:space="preserve">
<g id="Layer_1">
	<rect fill="#D9D9D9" width="700" height="467"/>
</g>
<g id="Layer_2">
	<g id="Security">
		<g id="Computer_1_">
			<g id="Computer">
				<path fill="#D7D7D7" d="M379.834,283.442c0-2.445-2.752-4.427-6.146-4.427h-43.265c-3.393,0-6.145,1.981-6.145,4.427
					l-10.474,38.723c0,2.443,2.751,4.424,6.145,4.424h66.815c3.392,0,6.144-1.98,6.144-4.424L379.834,283.442z"/>
				<path fill="#F3F3F3" d="M511.907,278.883c0,3.393-2.75,6.147-6.142,6.147H206.203c-3.393,0-6.145-2.755-6.145-6.147V76.103
					c0-3.393,2.751-6.144,6.145-6.144h299.563c3.392,0,6.142,2.75,6.142,6.144V278.883z"/>
				<rect x="200.058" y="81.845" fill="#706F6F" width="311.849" height="173.063"/>
				<path fill="#AFAFAF" d="M423.013,323.047c0,3.392-2.75,6.143-6.144,6.143H290.571c-3.394,0-6.145-2.751-6.145-6.143v-6.187
					c0-3.394,2.751-6.144,6.145-6.144h126.298c3.394,0,6.144,2.75,6.144,6.144V323.047z"/>
				<polygon fill="#9B9B9B" points="507.886,94.133 200.058,94.133 200.058,239.546 413.28,239.546 444.361,239.546 
					511.907,239.546 511.907,157.608 511.907,119.907 511.907,108.696 511.907,94.133 				"/>
				<circle fill="#575756" cx="353.72" cy="270.813" r="11.538"/>
			</g>
			<g>
				<path fill="#FFC32C" d="M399.951,155.678h-10.519v-36.169c0-0.079-0.005-0.153-0.007-0.23
					c-0.133-9.795-8.607-13.513-13.11-14.107c-0.24-0.032-0.481-0.048-0.724-0.048h-35.989c-5.68,0-10.134,1.587-13.24,4.719
					c-3.774,3.805-3.931,8.296-3.924,9.114v36.723h-11.074c-3.669,0-6.644,2.974-6.644,6.644v59.59c0,3.67,2.975,6.645,6.644,6.645
					h12.35h76.237c3.671,0,6.645-2.975,6.645-6.645v-59.59C406.596,158.652,403.622,155.678,399.951,155.678z M378.359,155.678
					h-10.82h-34.027l0-36.607c0.177-1.828,2.394-2.874,6.091-2.874h35.542c0.863,0.174,3.215,0.873,3.215,3.312v18.174V155.678z"/>
				<path fill="#F7AA00" d="M333.512,155.678l0-36.607c0.177-1.828,2.394-2.874,6.091-2.874h35.542
					c0.863,0.174,3.215,0.873,3.215,3.312v18.174l11.066-18.405c-0.133-9.795-8.607-13.513-13.11-14.107
					c-0.24-0.032-0.481-0.048-0.724-0.048h-35.989c-5.68,0-10.134,1.587-13.24,4.719c-3.774,3.805-3.931,8.296-3.924,9.114v36.723
					h-11.074c-3.669,0-6.644,2.974-6.644,6.644v59.59c0,3.67,2.975,6.645,6.644,6.645h12.35l43.825-72.878H333.512z"/>
				<path fill="#473305" d="M366.732,181.459c0-7.033-5.701-12.734-12.734-12.734s-12.735,5.702-12.735,12.734
					c0,5.21,3.131,9.688,7.612,11.659v17.27c0,2.828,2.295,5.122,5.123,5.122s5.121-2.293,5.121-5.122v-17.27
					C363.601,191.147,366.732,186.67,366.732,181.459z"/>
			</g>
		</g>
		<g id="Phone_1_">
			<g id="Phone">
				<path fill="#EDEDED" d="M570.928,399.548c0,3.672-2.344,6.647-5.232,6.647H423.144c-2.89,0-5.23-2.976-5.23-6.647v-257.47
					c0-3.672,2.341-6.648,5.23-6.648h142.552c2.889,0,5.232,2.976,5.232,6.648V399.548z"/>
				<path fill="#575756" d="M562.387,360.007c0,3.339-2.425,6.047-5.419,6.047H432.362c-2.991,0-5.416-2.708-5.416-6.047V168.796
					c0-3.34,2.425-6.046,5.416-6.046h124.605c2.994,0,5.419,2.707,5.419,6.046V360.007z"/>
				<circle fill="#FFC32C" cx="494.971" cy="385.801" r="16.332"/>
				<circle fill="#F6F6F6" cx="494.958" cy="385.788" r="13.311"/>
				<path fill="#1D1D1B" d="M517.489,151.095c0,1.252-1.015,2.267-2.267,2.267h-48.561c-1.251,0-2.266-1.015-2.266-2.267l0,0
					c0-1.251,1.015-2.266,2.266-2.266h48.561C516.475,148.829,517.489,149.843,517.489,151.095L517.489,151.095z"/>
				<path fill="#1D1D1B" d="M523.464,151.981c0,0.762-1.031,1.38-2.306,1.38l0,0c-1.272,0-2.306-0.618-2.306-1.38v-1.773
					c0-0.762,1.033-1.379,2.306-1.379l0,0c1.274,0,2.306,0.617,2.306,1.379V151.981z"/>
			</g>
			<g>
				<path fill="#FFC32C" d="M527.344,250.563h-7.688V224.13c0-0.058-0.004-0.112-0.005-0.169c-0.097-7.159-6.291-9.876-9.581-10.311
					c-0.176-0.023-0.354-0.035-0.53-0.035h-26.303c-4.15,0-7.406,1.161-9.677,3.449c-2.758,2.78-2.873,6.063-2.868,6.66v26.839
					h-8.093c-2.683,0-4.856,2.174-4.856,4.856v43.553c0,2.683,2.174,4.856,4.856,4.856h9.026h55.719
					c2.683,0,4.856-2.174,4.856-4.856V255.42C532.2,252.737,530.026,250.563,527.344,250.563z M511.562,250.563h-7.907h-24.869
					v-26.755c0.13-1.334,1.749-2.1,4.451-2.1h25.977c0.631,0.127,2.349,0.638,2.349,2.421v13.282V250.563z"/>
				<path fill="#F7AA00" d="M478.785,250.563v-26.755c0.13-1.334,1.749-2.1,4.451-2.1h25.977c0.631,0.127,2.349,0.638,2.349,2.421
					v13.282l8.089-13.451c-0.097-7.159-6.291-9.876-9.581-10.311c-0.176-0.023-0.354-0.035-0.53-0.035h-26.303
					c-4.15,0-7.406,1.161-9.677,3.449c-2.758,2.78-2.873,6.063-2.868,6.66v26.839h-8.093c-2.683,0-4.856,2.174-4.856,4.856v43.553
					c0,2.683,2.174,4.856,4.856,4.856h9.026l32.029-53.266H478.785z"/>
				<path fill="#473305" d="M503.064,269.407c0-5.141-4.167-9.307-9.308-9.307c-5.14,0-9.308,4.166-9.308,9.307
					c0,3.808,2.289,7.08,5.564,8.521v12.622c0,2.067,1.676,3.745,3.743,3.745s3.743-1.678,3.743-3.745v-12.622
					C500.776,276.487,503.064,273.215,503.064,269.407z"/>
			</g>
			<g>
				<circle fill="#42AA92" cx="525.54" cy="243.728" r="28.451"/>
				<path fill="#F6F6F6" d="M522.641,263.527c-0.981,0-1.968-0.315-2.799-0.967l-15.334-12.011c-1.975-1.549-2.321-4.404-0.773-6.38
					c1.547-1.975,4.402-2.321,6.378-0.773l11.842,9.275l18.989-23.071c1.594-1.937,4.456-2.214,6.395-0.62
					c1.938,1.596,2.216,4.458,0.621,6.395l-21.808,26.496C525.256,262.961,523.953,263.527,522.641,263.527z"/>
			</g>
		</g>
		<g id="Shield">
			<g>
				<path fill="#FE7134" d="M332.695,245.477c0,0-16.914,0.786-28.911-11.211c-10.735-10.735-6.096-30.832-6.096-30.832
					l-20.864-4.123l-10.494,26.909l14.964,2.958c0,0-3.324,14.399,4.368,22.092c8.596,8.596,20.714,8.032,20.714,8.032
					s3.101,36.637-18.318,71.022c-21.66,34.768-50.791,43.428-50.791,43.428s-10.406-3.097-23.4-13.007l-10.267,26.324
					c18.129,13.82,32.642,18.138,32.642,18.138s40.656-12.086,70.884-60.611C337.022,296.608,332.695,245.477,332.695,245.477z"/>
				<path fill="#CC4212" d="M237.269,373.752c0,0,29.131-8.66,50.791-43.428c21.419-34.386,18.318-71.022,18.318-71.022
					s-12.118,0.563-20.714-8.032c-7.692-7.692-4.368-22.092-4.368-22.092l-14.964-2.958l-52.462,134.525
					C226.863,370.655,237.269,373.752,237.269,373.752z"/>
				<path fill="#E05322" d="M186.479,330.324c-21.42-34.386-18.319-71.022-18.319-71.022s12.119,0.563,20.715-8.032
					c7.692-7.692,4.368-22.092,4.368-22.092l44.026-8.699l29.062,5.741l10.494-26.909l-40.581-8.018l-61.445,12.141
					c0,0,4.64,20.096-6.096,30.832c-11.997,11.997-28.911,11.211-28.911,11.211s-4.326,51.132,25.567,99.119
					c12.169,19.536,26.027,33.162,38.243,42.474l10.267-26.324C205.118,354.072,195.194,344.316,186.479,330.324z"/>
				<path fill="#99280A" d="M193.243,229.178c0,0,3.325,14.399-4.368,22.092c-8.596,8.596-20.715,8.032-20.715,8.032
					s-3.101,36.637,18.319,71.022c8.716,13.992,18.639,23.748,27.39,30.421l52.462-134.525l-29.062-5.741L193.243,229.178z"/>
			</g>
			<g>
				<path fill="#F5F5F5" d="M286.264,236.253c-1.663,0.146-0.705-18.482-4.141-21.932c-3.438-3.449-22.061-2.526-21.921-4.171
					c0.124-1.489,17.57-2.674,21.103-6.195c3.532-3.521,4.813-20.976,6.318-21.084c1.63-0.12,1.445,17.878,4.771,21.216
					c3.325,3.338,21.283,3.09,21.212,4.656c-0.072,1.566-17.938,2.403-21.549,6.001
					C288.445,218.343,287.736,236.122,286.264,236.253z"/>
				<path fill="#F5F5F5" d="M315.644,283.738c-1.141,0.102-0.483-12.679-2.841-15.046c-2.358-2.365-15.133-1.732-15.039-2.862
					c0.086-1.02,12.053-1.833,14.477-4.248c2.424-2.416,3.303-14.391,4.335-14.465c1.119-0.083,0.991,12.265,3.273,14.555
					c2.282,2.289,14.601,2.119,14.551,3.193s-12.306,1.648-14.782,4.117C317.14,271.453,316.654,283.649,315.644,283.738z"/>
			</g>
		</g>
		<g id="Password">
			<path fill="#EDEDED" d="M405.702,367.049c0,8.375-6.789,15.163-15.165,15.163H200.985c-8.375,0-15.165-6.788-15.165-15.163
				v-14.743c0-8.375,6.79-15.164,15.165-15.164h189.552c8.376,0,15.165,6.789,15.165,15.164V367.049z"/>
			<g>
				<path fill="#575756" d="M232.216,360.119c0,1.222-0.161,2.35-0.481,3.384c-0.321,1.035-0.792,1.925-1.413,2.67
					c-0.62,0.745-1.381,1.324-2.281,1.738c-0.899,0.413-1.93,0.621-3.088,0.621c-0.932,0-1.754-0.125-2.468-0.372
					c-0.714-0.249-1.247-0.487-1.598-0.715v6.456h-2.887v-21.386c0.683-0.166,1.537-0.348,2.561-0.544
					c1.024-0.197,2.208-0.295,3.554-0.295c1.241,0,2.359,0.196,3.352,0.59c0.994,0.394,1.841,0.951,2.545,1.676
					c0.704,0.725,1.247,1.61,1.63,2.654C232.024,357.643,232.216,358.816,232.216,360.119z M229.205,360.119
					c0-1.882-0.465-3.331-1.396-4.345s-2.173-1.521-3.725-1.521c-0.869,0-1.547,0.031-2.033,0.093
					c-0.487,0.063-0.875,0.135-1.164,0.218v10.181c0.352,0.291,0.858,0.57,1.521,0.838c0.662,0.27,1.386,0.404,2.172,0.404
					c0.828,0,1.537-0.149,2.126-0.449c0.59-0.301,1.071-0.715,1.443-1.242c0.373-0.527,0.641-1.148,0.807-1.863
					C229.122,361.718,229.205,360.947,229.205,360.119z"/>
				<path fill="#575756" d="M241.497,351.614c1.159,0,2.137,0.15,2.934,0.45c0.796,0.301,1.438,0.725,1.924,1.272
					c0.486,0.55,0.833,1.2,1.04,1.956c0.207,0.755,0.311,1.589,0.311,2.498v10.089c-0.249,0.041-0.595,0.099-1.04,0.171
					c-0.445,0.073-0.947,0.14-1.505,0.202c-0.559,0.062-1.164,0.118-1.816,0.17c-0.652,0.051-1.299,0.078-1.94,0.078
					c-0.911,0-1.749-0.094-2.514-0.279c-0.767-0.188-1.428-0.481-1.987-0.885c-0.559-0.403-0.993-0.937-1.304-1.599
					c-0.311-0.662-0.466-1.459-0.466-2.39c0-0.891,0.181-1.656,0.543-2.298c0.361-0.642,0.854-1.158,1.474-1.552
					c0.622-0.393,1.345-0.683,2.173-0.87c0.827-0.186,1.696-0.278,2.607-0.278c0.289,0,0.589,0.016,0.9,0.047
					c0.311,0.03,0.605,0.072,0.885,0.123c0.279,0.052,0.522,0.1,0.729,0.141c0.207,0.041,0.351,0.072,0.434,0.093v-0.807
					c0-0.477-0.052-0.947-0.155-1.413c-0.104-0.465-0.291-0.879-0.559-1.241c-0.27-0.362-0.637-0.652-1.102-0.869
					c-0.466-0.217-1.071-0.326-1.816-0.326c-0.951,0-1.784,0.067-2.498,0.202c-0.714,0.134-1.248,0.274-1.599,0.419l-0.341-2.391
					c0.373-0.165,0.994-0.325,1.862-0.481C239.541,351.691,240.482,351.614,241.497,351.614z M241.746,366.08
					c0.683,0,1.288-0.016,1.815-0.047s0.967-0.089,1.319-0.171v-4.812c-0.207-0.104-0.543-0.191-1.008-0.265
					c-0.466-0.071-1.03-0.108-1.692-0.108c-0.434,0-0.895,0.031-1.381,0.094s-0.931,0.192-1.334,0.388
					c-0.404,0.197-0.74,0.466-1.009,0.807c-0.269,0.343-0.403,0.793-0.403,1.352c0,1.034,0.331,1.754,0.993,2.157
					C239.707,365.877,240.607,366.08,241.746,366.08z"/>
				<path fill="#575756" d="M256.241,366.08c1.179,0,2.053-0.155,2.623-0.466c0.569-0.311,0.854-0.808,0.854-1.49
					c0-0.703-0.279-1.262-0.838-1.676c-0.559-0.413-1.48-0.88-2.763-1.397c-0.621-0.248-1.216-0.501-1.785-0.76
					c-0.569-0.259-1.061-0.564-1.475-0.916s-0.744-0.776-0.993-1.273c-0.249-0.496-0.373-1.106-0.373-1.831
					c0-1.428,0.528-2.562,1.583-3.399s2.493-1.257,4.314-1.257c0.455,0,0.91,0.026,1.366,0.077c0.455,0.052,0.879,0.115,1.273,0.188
					c0.393,0.072,0.739,0.15,1.04,0.232c0.299,0.083,0.533,0.155,0.698,0.217l-0.528,2.484c-0.31-0.166-0.797-0.337-1.458-0.513
					c-0.663-0.176-1.459-0.265-2.391-0.265c-0.807,0-1.511,0.161-2.111,0.482c-0.601,0.32-0.9,0.821-0.9,1.505
					c0,0.352,0.066,0.662,0.202,0.931c0.135,0.27,0.342,0.513,0.621,0.729c0.28,0.218,0.625,0.419,1.041,0.606
					c0.414,0.186,0.91,0.383,1.49,0.589c0.765,0.29,1.448,0.574,2.049,0.854c0.6,0.279,1.112,0.605,1.536,0.978
					c0.424,0.373,0.75,0.823,0.978,1.352c0.228,0.526,0.342,1.174,0.342,1.939c0,1.489-0.554,2.617-1.661,3.384
					c-1.107,0.766-2.686,1.148-4.733,1.148c-1.428,0-2.546-0.12-3.353-0.357c-0.807-0.237-1.355-0.419-1.645-0.543l0.528-2.483
					c0.331,0.123,0.858,0.31,1.583,0.559C254.078,365.955,255.04,366.08,256.241,366.08z"/>
				<path fill="#575756" d="M270.085,366.08c1.179,0,2.054-0.155,2.623-0.466s0.854-0.808,0.854-1.49
					c0-0.703-0.279-1.262-0.838-1.676c-0.559-0.413-1.48-0.88-2.763-1.397c-0.621-0.248-1.215-0.501-1.785-0.76
					s-1.061-0.564-1.475-0.916c-0.414-0.352-0.745-0.776-0.993-1.273c-0.248-0.496-0.373-1.106-0.373-1.831
					c0-1.428,0.528-2.562,1.583-3.399c1.056-0.838,2.494-1.257,4.315-1.257c0.455,0,0.911,0.026,1.366,0.077
					c0.455,0.052,0.879,0.115,1.272,0.188c0.393,0.072,0.739,0.15,1.04,0.232c0.299,0.083,0.533,0.155,0.699,0.217l-0.528,2.484
					c-0.311-0.166-0.796-0.337-1.459-0.513c-0.662-0.176-1.458-0.265-2.39-0.265c-0.807,0-1.511,0.161-2.11,0.482
					c-0.601,0.32-0.901,0.821-0.901,1.505c0,0.352,0.067,0.662,0.202,0.931c0.135,0.27,0.342,0.513,0.622,0.729
					c0.279,0.218,0.625,0.419,1.04,0.606c0.414,0.186,0.911,0.383,1.49,0.589c0.765,0.29,1.448,0.574,2.048,0.854
					c0.6,0.279,1.113,0.605,1.537,0.978c0.424,0.373,0.75,0.823,0.978,1.352c0.228,0.526,0.341,1.174,0.341,1.939
					c0,1.489-0.554,2.617-1.661,3.384c-1.107,0.766-2.685,1.148-4.733,1.148c-1.428,0-2.545-0.12-3.352-0.357
					c-0.807-0.237-1.355-0.419-1.646-0.543l0.528-2.483c0.331,0.123,0.858,0.31,1.583,0.559
					C267.922,365.955,268.885,366.08,270.085,366.08z"/>
				<path fill="#575756" d="M290.758,354.098c0,0.56-0.187,1.046-0.559,1.459c-0.373,0.414-0.88,0.62-1.521,0.62
					c-0.641,0-1.148-0.206-1.521-0.62c-0.372-0.413-0.559-0.899-0.559-1.459s0.187-1.045,0.559-1.46
					c0.373-0.413,0.88-0.62,1.521-0.62c0.642,0,1.148,0.207,1.521,0.62C290.571,353.053,290.758,353.538,290.758,354.098z
					 M290.758,366.483c0,0.559-0.187,1.045-0.559,1.459c-0.373,0.413-0.88,0.62-1.521,0.62c-0.641,0-1.148-0.207-1.521-0.62
					c-0.372-0.414-0.559-0.9-0.559-1.459s0.187-1.045,0.559-1.459c0.373-0.413,0.88-0.622,1.521-0.622
					c0.642,0,1.148,0.209,1.521,0.622C290.571,365.438,290.758,365.925,290.758,366.483z"/>
				<path fill="#575756" d="M308.512,346.896c0,0.869-0.078,1.702-0.233,2.498c-0.155,0.798-0.315,1.62-0.48,2.468
					c0.745-0.413,1.479-0.816,2.204-1.21c0.724-0.393,1.51-0.734,2.359-1.024l0.186-0.063l0.87,2.607l-0.249,0.094
					c-0.828,0.311-1.656,0.512-2.483,0.604c-0.828,0.095-1.677,0.172-2.546,0.233c0.683,0.579,1.325,1.145,1.925,1.69
					c0.6,0.55,1.159,1.187,1.676,1.909l0.155,0.219l-2.266,1.583l-0.125-0.188c-0.497-0.744-0.926-1.484-1.288-2.218
					c-0.362-0.735-0.729-1.495-1.102-2.282c-0.373,0.787-0.74,1.547-1.102,2.282c-0.363,0.733-0.792,1.474-1.289,2.218l-0.124,0.188
					l-2.266-1.583l0.156-0.219c0.517-0.723,1.076-1.359,1.676-1.909c0.6-0.546,1.241-1.111,1.924-1.69
					c-0.869-0.062-1.717-0.139-2.545-0.233c-0.828-0.093-1.656-0.294-2.483-0.604l-0.248-0.094l0.869-2.607l0.186,0.063
					c0.849,0.29,1.635,0.632,2.359,1.024c0.724,0.394,1.459,0.797,2.204,1.21c-0.166-0.848-0.325-1.67-0.48-2.468
					c-0.155-0.796-0.233-1.629-0.233-2.498v-0.249h2.793V346.896z"/>
				<path fill="#575756" d="M323.412,346.896c0,0.869-0.078,1.702-0.233,2.498c-0.155,0.798-0.316,1.62-0.481,2.468
					c0.745-0.413,1.479-0.816,2.204-1.21c0.724-0.393,1.51-0.734,2.359-1.024l0.186-0.063l0.869,2.607l-0.248,0.094
					c-0.828,0.311-1.656,0.512-2.483,0.604c-0.828,0.095-1.677,0.172-2.545,0.233c0.683,0.579,1.324,1.145,1.924,1.69
					c0.6,0.55,1.159,1.187,1.676,1.909l0.155,0.219l-2.266,1.583l-0.125-0.188c-0.497-0.744-0.926-1.484-1.288-2.218
					c-0.363-0.735-0.729-1.495-1.102-2.282c-0.373,0.787-0.74,1.547-1.102,2.282c-0.362,0.733-0.791,1.474-1.288,2.218l-0.124,0.188
					l-2.266-1.583l0.155-0.219c0.517-0.723,1.076-1.359,1.676-1.909c0.6-0.546,1.242-1.111,1.924-1.69
					c-0.869-0.062-1.718-0.139-2.545-0.233c-0.828-0.093-1.656-0.294-2.483-0.604l-0.249-0.094l0.87-2.607l0.186,0.063
					c0.848,0.29,1.635,0.632,2.359,1.024c0.725,0.394,1.459,0.797,2.204,1.21c-0.166-0.848-0.325-1.67-0.48-2.468
					c-0.155-0.796-0.233-1.629-0.233-2.498v-0.249h2.793V346.896z"/>
				<path fill="#575756" d="M338.311,346.896c0,0.869-0.078,1.702-0.233,2.498c-0.155,0.798-0.315,1.62-0.481,2.468
					c0.746-0.413,1.479-0.816,2.205-1.21c0.724-0.393,1.51-0.734,2.359-1.024l0.186-0.063l0.869,2.607l-0.248,0.094
					c-0.828,0.311-1.656,0.512-2.483,0.604c-0.828,0.095-1.676,0.172-2.545,0.233c0.683,0.579,1.324,1.145,1.924,1.69
					c0.6,0.55,1.159,1.187,1.676,1.909l0.155,0.219l-2.266,1.583l-0.125-0.188c-0.497-0.744-0.927-1.484-1.288-2.218
					c-0.363-0.735-0.73-1.495-1.102-2.282c-0.372,0.787-0.74,1.547-1.102,2.282c-0.362,0.733-0.792,1.474-1.288,2.218l-0.125,0.188
					l-2.266-1.583l0.155-0.219c0.517-0.723,1.076-1.359,1.676-1.909c0.6-0.546,1.241-1.111,1.924-1.69
					c-0.869-0.062-1.718-0.139-2.545-0.233c-0.828-0.093-1.656-0.294-2.483-0.604l-0.249-0.094l0.869-2.607l0.186,0.063
					c0.849,0.29,1.635,0.632,2.359,1.024c0.724,0.394,1.459,0.797,2.204,1.21c-0.166-0.848-0.326-1.67-0.481-2.468
					c-0.155-0.796-0.232-1.629-0.232-2.498v-0.249h2.793V346.896z"/>
				<path fill="#575756" d="M353.21,346.896c0,0.869-0.077,1.702-0.231,2.498c-0.155,0.798-0.316,1.62-0.482,2.468
					c0.745-0.413,1.48-0.816,2.205-1.21c0.723-0.393,1.51-0.734,2.358-1.024l0.187-0.063l0.869,2.607l-0.248,0.094
					c-0.828,0.311-1.656,0.512-2.483,0.604c-0.828,0.095-1.677,0.172-2.546,0.233c0.683,0.579,1.324,1.145,1.925,1.69
					c0.601,0.55,1.158,1.187,1.677,1.909l0.154,0.219l-2.266,1.583l-0.125-0.188c-0.496-0.744-0.925-1.484-1.288-2.218
					c-0.361-0.735-0.729-1.495-1.102-2.282c-0.372,0.787-0.739,1.547-1.102,2.282c-0.362,0.733-0.792,1.474-1.288,2.218
					l-0.124,0.188l-2.267-1.583l0.155-0.219c0.518-0.723,1.076-1.359,1.677-1.909c0.6-0.546,1.241-1.111,1.924-1.69
					c-0.869-0.062-1.718-0.139-2.545-0.233c-0.828-0.093-1.656-0.294-2.483-0.604l-0.249-0.094l0.869-2.607l0.188,0.063
					c0.848,0.29,1.634,0.632,2.358,1.024c0.725,0.394,1.459,0.797,2.204,1.21c-0.166-0.848-0.326-1.67-0.48-2.468
					c-0.156-0.796-0.233-1.629-0.233-2.498v-0.249h2.793V346.896z"/>
				<path fill="#575756" d="M368.109,346.896c0,0.869-0.077,1.702-0.231,2.498c-0.156,0.798-0.316,1.62-0.482,2.468
					c0.745-0.413,1.479-0.816,2.204-1.21c0.725-0.393,1.51-0.734,2.359-1.024l0.186-0.063l0.87,2.607l-0.249,0.094
					c-0.828,0.311-1.656,0.512-2.482,0.604c-0.828,0.095-1.676,0.172-2.545,0.233c0.682,0.579,1.322,1.145,1.924,1.69
					c0.6,0.55,1.158,1.187,1.676,1.909l0.155,0.219l-2.265,1.583l-0.126-0.188c-0.495-0.744-0.927-1.484-1.288-2.218
					c-0.361-0.735-0.729-1.495-1.102-2.282c-0.372,0.787-0.74,1.547-1.102,2.282c-0.363,0.733-0.791,1.474-1.288,2.218l-0.124,0.188
					l-2.266-1.583l0.154-0.219c0.518-0.723,1.076-1.359,1.677-1.909c0.599-0.546,1.241-1.111,1.924-1.69
					c-0.868-0.062-1.718-0.139-2.545-0.233c-0.827-0.093-1.657-0.294-2.483-0.604l-0.248-0.094l0.869-2.607l0.186,0.063
					c0.85,0.29,1.635,0.632,2.359,1.024c0.724,0.394,1.459,0.797,2.203,1.21c-0.166-0.848-0.325-1.67-0.481-2.468
					c-0.153-0.796-0.231-1.629-0.231-2.498v-0.249h2.793V346.896z"/>
			</g>
		</g>
	</g>
</g>
</svg>
