<?xml version="1.0" encoding="utf-8"?>
<!-- Generator: Adobe Illustrator 15.0.0, SVG Export Plug-In . SVG Version: 6.00 Build 0)  -->
<!DOCTYPE svg PUBLIC "-//W3C//DTD SVG 1.1//EN" "http://www.w3.org/Graphics/SVG/1.1/DTD/svg11.dtd">
<svg version="1.1" xmlns="http://www.w3.org/2000/svg" xmlns:xlink="http://www.w3.org/1999/xlink" x="0px" y="0px" width="700px"
	 height="467px" viewBox="0 0 700 467" enable-background="new 0 0 700 467" xml:space="preserve">
<g id="Layer_2">
	<rect fill="#ECECEC" width="700" height="467"/>
</g>
<g id="Layer_1">
	<g id="code">
		<circle fill="#F3724B" cx="359.701" cy="255.363" r="124.408"/>
		<g>
			<path fill="#FFFFFF" d="M406.074,271.316l20.537-10.58v3.055l-17.307,8.676v0.092l17.307,8.672v3.055l-20.537-10.578V271.316z"/>
			<path fill="#FFFFFF" d="M429.488,286.016l12.305-32.096h3.055l-12.396,32.096H429.488z"/>
			<path fill="#FFFFFF" d="M468.172,273.754l-20.537,10.531v-3.055l17.439-8.672v-0.092l-17.439-8.676v-3.055l20.537,10.492V273.754
				z"/>
		</g>
		<g>
			<defs>
				<circle id="SVGID_1_" cx="359.701" cy="255.363" r="124.408"/>
			</defs>
			<clipPath id="SVGID_2_">
				<use xlink:href="#SVGID_1_"  overflow="visible"/>
			</clipPath>
			<g clip-path="url(#SVGID_2_)">
				<path fill="#784E26" d="M298.832,265.467c0,0-17.213-8.178-21.631-26.631c-6.261-26.174,0.677-51.362,14.311-49.057
					c6.672,11.778,10.417,14.475,10.417,14.475S296.195,253.256,298.832,265.467z"/>
				<g>
					<path fill="#FEE1B9" d="M395.709,231.092c0-33.619-23.949-60.872-53.489-60.872c-29.535,0-53.483,27.253-53.483,60.872
						c0,33.615,23.948,60.867,53.483,60.867C371.76,291.959,395.709,264.707,395.709,231.092z"/>
					<rect x="328.265" y="280.23" fill="#FEE1B9" width="25.628" height="31.455"/>
					<path fill="#FEE1B9" d="M341.077,307.314c-36.53,0-66.158,31.773-66.158,72.461H407.24
						C407.24,339.088,377.611,307.314,341.077,307.314z"/>
					<g>
						<g>
							<path fill="none" stroke="#784E26" stroke-width="1.0609" stroke-miterlimit="10" d="M328.524,226.118
								c0,0-8.149-8.405-18.506,0"/>
							<g>
								<path fill="#231F20" d="M321.439,232.677c0-1.197-0.963-2.167-2.166-2.167c-1.201,0-2.167,0.97-2.167,2.167
									c0,1.196,0.966,2.167,2.167,2.167C320.477,234.844,321.439,233.874,321.439,232.677z"/>
								<path fill="#231F20" d="M319.273,235.621c-1.622,0-2.942-1.32-2.942-2.944c0-1.622,1.32-2.942,2.942-2.942
									c1.623,0,2.944,1.32,2.944,2.942C322.217,234.301,320.896,235.621,319.273,235.621z M319.273,231.288
									c-0.766,0-1.388,0.623-1.388,1.389c0,0.766,0.622,1.391,1.388,1.391c0.768,0,1.39-0.625,1.39-1.391
									C320.664,231.911,320.042,231.288,319.273,231.288z"/>
							</g>
						</g>
						<g>
							<path fill="none" stroke="#784E26" stroke-width="1.0609" stroke-miterlimit="10" d="M355.916,226.118
								c0,0,8.152-8.405,18.502,0"/>
							<g>
								<path fill="#231F20" d="M367.338,232.677c0-1.197-0.967-2.167-2.166-2.167c-1.203,0-2.17,0.97-2.17,2.167
									c0,1.196,0.967,2.167,2.17,2.167C366.371,234.844,367.338,233.874,367.338,232.677z"/>
								<path fill="#231F20" d="M365.172,235.621c-1.623,0-2.945-1.32-2.945-2.944c0-1.622,1.322-2.942,2.945-2.942
									c1.621,0,2.941,1.32,2.941,2.942C368.113,234.301,366.793,235.621,365.172,235.621z M365.172,231.288
									c-0.768,0-1.391,0.623-1.391,1.389c0,0.766,0.623,1.391,1.391,1.391c0.766,0,1.391-0.625,1.391-1.391
									C366.563,231.911,365.938,231.288,365.172,231.288z"/>
							</g>
						</g>
					</g>
				</g>
				<path fill="#FFFFFF" d="M342.024,274.965c6.126,0,11.097-4.254,11.097-9.498h-22.189
					C330.932,270.711,335.898,274.965,342.024,274.965z"/>
				<path fill="#FEE1B9" d="M280.003,240.406c-0.835-8.218,3.639-15.577,9.995-16.436c6.356-0.856,12.183,5.108,13.019,13.326
					c0.838,8.217-3.64,15.572-9.99,16.434C286.671,254.592,280.841,248.623,280.003,240.406z"/>
				<path fill="#FEE1B9" d="M392.52,253.758c-6.332-0.703-10.607-7.955-9.537-16.188c1.061-8.242,7.057-14.36,13.395-13.66
					c6.33,0.702,10.6,7.952,9.535,16.191C404.844,248.342,398.854,254.457,392.52,253.758z"/>
				<path fill="#784E26" d="M303.138,204.837c0,0,17.792,13.621,51.991,13.621c34.201,0,58.504-31.527,50.945-58.177
					c-11.012,9.855-34.734,11.804-54.561,4.848c-19.829-6.956-40.455-6.956-53.329,3.479
					C285.308,179.041,290.044,196.713,303.138,204.837z"/>
				<path fill="#784E26" d="M305.89,206.212c0,0-12.633,22.785-8.575,38.911c-9.855-12.657-12.864-31.05-12.864-31.05l7.554-23.438
					L305.89,206.212z"/>
				<path fill="#784E26" d="M376.295,205.48c0,0,14.666,5.459,13.357,29.182c14.449-16.542,7.354-36.231,7.354-36.231l-6.828-8.528
					L376.295,205.48z"/>
				<path fill="#2D3E50" d="M359.287,310.068c-1.461,7.865-9.045,13.869-18.21,13.869c-9.163,0-16.748-6.004-18.208-13.869
					c-27.677,8.527-47.95,36.057-47.95,69.707H407.24C407.24,346.125,386.969,318.596,359.287,310.068z"/>
			</g>
		</g>
	</g>
	<g id="sport_men">
		<circle fill="#6980A2" cx="137.668" cy="99.447" r="68.506"/>
		<g>
			<g>
				<g>
					<path fill="#F15A29" d="M190.019,122.152c2.929-3.11,7.729-9.308,6.546-18.864c-0.596-3.333-2.49-4.034-4.366-4.472
						c-1.79-0.152-9.762-1.681-18.744,6.773c-8.454,8.982-6.927,16.954-6.773,18.743c0.439,1.877,1.14,3.771,4.472,4.368
						C180.711,129.881,186.909,125.082,190.019,122.152z"/>
				</g>
			</g>
			<path fill="#FFFFFF" d="M195.954,112.038c0.306-1.098,0.537-2.271,0.666-3.52c-2.097-3.066-6.535-7.342-10.169-9.691
				c-0.998,0.146-2.091,0.385-3.26,0.763C187.75,101.925,194.725,108.78,195.954,112.038z"/>
			<path fill="#FFFFFF" d="M176.533,128.759c1.248-0.138,2.419-0.381,3.515-0.695c-3.236-1.14-10.245-8.261-12.568-12.861
				c-0.383,1.158-0.632,2.245-0.786,3.238C169.056,122.127,173.437,126.674,176.533,128.759z"/>
			<g>
				
					<radialGradient id="SVGID_3_" cx="77.9844" cy="123.1528" r="6.3549" gradientTransform="matrix(0.7071 0.7071 -0.7071 0.7071 213.4407 -28.3429)" gradientUnits="userSpaceOnUse">
					<stop  offset="0.1333" style="stop-color:#FFFFFF"/>
					<stop  offset="0.6798" style="stop-color:#F1F2F2"/>
				</radialGradient>
				<polygon fill="url(#SVGID_3_)" points="175.958,120.955 174.428,119.425 187.045,106.808 188.575,108.338 				"/>
			</g>
			<g>
				<g>
					<g>
						<path fill="#571500" d="M188.009,107.217c-0.028-0.028-0.031-0.076-0.004-0.106c0.029-0.033,0.078-0.037,0.11-0.009
							c0.002,0.002,0.044,0.039,0.118,0.09c0.036,0.027,0.044,0.074,0.02,0.11c-0.026,0.037-0.075,0.044-0.11,0.02
							c-0.084-0.061-0.131-0.101-0.131-0.101C188.011,107.22,188.01,107.219,188.009,107.217z"/>
					</g>
					<g>
						<path fill="#571500" d="M175.295,123.238c-0.003-0.002-0.006-0.006-0.007-0.009c-0.065-0.089-0.11-0.192-0.14-0.317
							c-0.01-0.041,0.017-0.084,0.059-0.095c0.042-0.009,0.084,0.018,0.094,0.059c0.025,0.104,0.062,0.189,0.113,0.259
							c0.026,0.037,0.018,0.085-0.017,0.111C175.365,123.269,175.322,123.266,175.295,123.238z M175.534,123.441
							c-0.023-0.023-0.031-0.061-0.014-0.092c0.02-0.038,0.067-0.052,0.106-0.034c0.08,0.042,0.172,0.071,0.275,0.085
							c0.043,0.007,0.073,0.046,0.068,0.088c-0.007,0.043-0.047,0.074-0.089,0.067c-0.121-0.017-0.231-0.05-0.327-0.1
							C175.545,123.452,175.539,123.446,175.534,123.441z M175.129,122.637c-0.013-0.013-0.021-0.031-0.023-0.053
							c-0.004-0.085-0.005-0.172-0.007-0.263l-0.002-0.055c0-0.044,0.035-0.08,0.078-0.081c0.043-0.002,0.079,0.035,0.081,0.076
							l0,0.057c0.001,0.089,0.002,0.175,0.007,0.259c0.002,0.042-0.031,0.08-0.074,0.081
							C175.166,122.661,175.144,122.652,175.129,122.637z M176.151,123.539c-0.013-0.012-0.021-0.03-0.022-0.048
							c-0.004-0.044,0.027-0.083,0.07-0.085c0.095-0.01,0.195-0.027,0.298-0.055c0.042-0.011,0.085,0.014,0.096,0.057
							c0.012,0.04-0.013,0.084-0.055,0.096c-0.111,0.028-0.221,0.049-0.324,0.058C176.19,123.565,176.167,123.555,176.151,123.539z
							 M175.109,122.003c-0.013-0.013-0.022-0.03-0.022-0.05c-0.009-0.112-0.021-0.214-0.04-0.304
							c-0.009-0.042,0.02-0.086,0.062-0.093c0.043-0.008,0.084,0.02,0.092,0.063c0.019,0.098,0.032,0.204,0.041,0.322
							c0.003,0.043-0.029,0.081-0.072,0.083C175.146,122.027,175.124,122.018,175.109,122.003z M176.763,123.38
							c-0.007-0.006-0.013-0.015-0.017-0.024c-0.017-0.041,0.003-0.087,0.043-0.103c0.091-0.039,0.186-0.083,0.279-0.133
							c0.038-0.02,0.085-0.006,0.106,0.033c0.021,0.038,0.007,0.085-0.032,0.105c-0.098,0.054-0.197,0.099-0.294,0.139
							C176.818,123.41,176.784,123.402,176.763,123.38z M174.982,121.384c-0.008-0.008-0.014-0.015-0.018-0.026
							c-0.037-0.096-0.082-0.185-0.135-0.27c-0.024-0.036-0.013-0.085,0.024-0.109c0.037-0.021,0.084-0.011,0.109,0.026
							c0.058,0.092,0.108,0.191,0.148,0.296c0.015,0.041-0.004,0.086-0.045,0.101C175.035,121.415,175.003,121.406,174.982,121.384z
							 M177.322,123.083c-0.004-0.004-0.008-0.006-0.011-0.012c-0.024-0.036-0.014-0.085,0.022-0.108
							c0.085-0.057,0.17-0.119,0.252-0.181c0.034-0.029,0.085-0.022,0.109,0.012c0.027,0.033,0.021,0.084-0.013,0.11
							c-0.085,0.065-0.173,0.131-0.262,0.189C177.389,123.114,177.348,123.11,177.322,123.083z M177.82,122.692
							c0,0-0.001-0.001-0.002-0.001c-0.029-0.033-0.027-0.083,0.005-0.112c0.043-0.04,0.085-0.08,0.126-0.121
							c0.033-0.033,0.063-0.065,0.095-0.098c0.029-0.032,0.079-0.033,0.111-0.003l0.001,0.001c0.031,0.031,0.032,0.08,0.003,0.109
							c-0.032,0.035-0.065,0.069-0.099,0.102c-0.043,0.042-0.087,0.085-0.131,0.126C177.897,122.724,177.85,122.722,177.82,122.692z
							 M178.253,122.232c-0.028-0.028-0.031-0.074-0.005-0.107c0.064-0.079,0.127-0.161,0.188-0.246
							c0.025-0.037,0.074-0.043,0.109-0.021c0.035,0.025,0.043,0.075,0.019,0.11c-0.063,0.089-0.128,0.174-0.194,0.257
							c-0.027,0.035-0.077,0.04-0.11,0.013C178.258,122.234,178.255,122.233,178.253,122.232z M178.62,121.715
							c-0.026-0.027-0.031-0.067-0.01-0.1c0.059-0.089,0.119-0.178,0.18-0.264c0.025-0.035,0.074-0.044,0.109-0.02
							c0.035,0.026,0.043,0.074,0.018,0.111c-0.06,0.085-0.119,0.171-0.176,0.257c-0.024,0.038-0.073,0.048-0.109,0.024
							C178.628,121.722,178.624,121.718,178.62,121.715z M178.987,121.197c-0.028-0.026-0.031-0.071-0.007-0.102
							c0.065-0.085,0.133-0.168,0.201-0.25c0.028-0.033,0.077-0.037,0.111-0.009c0.032,0.028,0.038,0.076,0.01,0.11
							c-0.066,0.08-0.132,0.162-0.196,0.245c-0.027,0.033-0.076,0.042-0.11,0.015C178.992,121.201,178.989,121.2,178.987,121.197z
							 M179.393,120.711c-0.029-0.028-0.031-0.078-0.003-0.108c0.072-0.079,0.145-0.158,0.218-0.234
							c0.03-0.032,0.08-0.033,0.111-0.003c0.03,0.027,0.032,0.08,0.002,0.112c-0.072,0.075-0.143,0.15-0.214,0.229
							c-0.029,0.034-0.079,0.035-0.111,0.007C179.395,120.713,179.394,120.712,179.393,120.711z M179.832,120.253
							C179.832,120.253,179.832,120.252,179.832,120.253c-0.031-0.03-0.031-0.081,0-0.111c0.077-0.076,0.155-0.148,0.231-0.22
							c0.032-0.028,0.085-0.028,0.112,0.004c0.029,0.031,0.026,0.082-0.005,0.111c-0.077,0.069-0.153,0.142-0.229,0.215
							C179.912,120.284,179.862,120.284,179.832,120.253z M180.298,119.824c-0.001-0.002-0.002-0.003-0.004-0.004
							c-0.028-0.032-0.025-0.083,0.007-0.111c0.082-0.07,0.163-0.14,0.243-0.206c0.034-0.028,0.086-0.021,0.111,0.011
							c0.027,0.034,0.023,0.082-0.01,0.11c-0.08,0.066-0.161,0.134-0.24,0.204C180.374,119.856,180.328,119.853,180.298,119.824z
							 M180.787,119.419c-0.002-0.001-0.004-0.004-0.006-0.007c-0.027-0.034-0.021-0.083,0.013-0.109
							c0.085-0.067,0.169-0.133,0.252-0.196c0.034-0.026,0.085-0.019,0.11,0.016c0.026,0.034,0.02,0.084-0.015,0.11
							c-0.082,0.061-0.166,0.126-0.25,0.192C180.859,119.452,180.814,119.448,180.787,119.419z M181.292,119.038
							c-0.002-0.004-0.005-0.007-0.007-0.011c-0.026-0.034-0.018-0.085,0.017-0.109c0.088-0.065,0.174-0.126,0.258-0.186
							c0.035-0.025,0.085-0.017,0.109,0.019c0.024,0.037,0.016,0.085-0.019,0.111c-0.083,0.058-0.169,0.12-0.256,0.183
							C181.362,119.067,181.319,119.064,181.292,119.038z M181.81,118.67c-0.004-0.002-0.007-0.005-0.009-0.011
							c-0.024-0.035-0.017-0.083,0.019-0.107l0.095-0.067c0.054-0.037,0.111-0.074,0.173-0.113c0.037-0.021,0.084-0.011,0.108,0.026
							c0.023,0.037,0.011,0.085-0.026,0.108c-0.059,0.036-0.114,0.073-0.166,0.108l-0.095,0.067
							C181.877,118.7,181.835,118.697,181.81,118.67z M182.347,118.334c-0.005-0.006-0.009-0.011-0.013-0.018
							c-0.021-0.038-0.008-0.085,0.03-0.108c0.089-0.049,0.183-0.099,0.28-0.151c0.039-0.02,0.086-0.006,0.106,0.034
							c0.021,0.038,0.005,0.085-0.033,0.105c-0.096,0.053-0.189,0.101-0.277,0.15C182.409,118.365,182.371,118.358,182.347,118.334z
							 M182.906,118.036c-0.005-0.006-0.01-0.013-0.013-0.02c-0.021-0.038-0.006-0.085,0.033-0.106l0.28-0.146
							c0.038-0.02,0.085-0.004,0.106,0.033c0.02,0.039,0.005,0.087-0.034,0.106l-0.281,0.148
							C182.967,118.066,182.93,118.06,182.906,118.036z M183.467,117.74c-0.005-0.006-0.01-0.011-0.014-0.018
							c-0.02-0.039-0.006-0.086,0.032-0.107c0.093-0.05,0.185-0.1,0.276-0.152c0.038-0.02,0.085-0.009,0.106,0.03
							c0.022,0.037,0.009,0.085-0.029,0.107c-0.093,0.052-0.187,0.104-0.279,0.152C183.529,117.77,183.492,117.764,183.467,117.74z
							 M184.019,117.428c-0.004-0.004-0.008-0.009-0.011-0.016c-0.023-0.036-0.01-0.085,0.027-0.106
							c0.09-0.056,0.179-0.111,0.267-0.168c0.036-0.023,0.084-0.013,0.108,0.023c0.024,0.038,0.014,0.085-0.023,0.108
							c-0.088,0.059-0.179,0.115-0.271,0.17C184.084,117.458,184.045,117.454,184.019,117.428z M184.55,117.081
							c-0.003-0.003-0.006-0.005-0.008-0.01c-0.025-0.035-0.018-0.085,0.018-0.109c0.088-0.063,0.17-0.129,0.247-0.192
							c0.033-0.028,0.083-0.022,0.11,0.011c0.028,0.034,0.024,0.083-0.01,0.111c-0.078,0.064-0.164,0.131-0.254,0.196
							C184.621,117.112,184.577,117.108,184.55,117.081z M185.036,116.673c-0.031-0.03-0.031-0.081,0-0.11
							c0.077-0.077,0.145-0.155,0.204-0.231c0.026-0.034,0.076-0.04,0.11-0.013c0.033,0.025,0.04,0.075,0.013,0.11
							c-0.063,0.082-0.136,0.163-0.217,0.244C185.116,116.705,185.066,116.705,185.036,116.673z M185.419,116.173
							c-0.023-0.026-0.031-0.063-0.014-0.094c0.044-0.083,0.08-0.168,0.104-0.253l0.008-0.027c0.013-0.041,0.057-0.064,0.099-0.052
							c0.041,0.014,0.064,0.057,0.052,0.099l-0.007,0.024c-0.028,0.094-0.067,0.19-0.117,0.283
							c-0.021,0.037-0.068,0.052-0.106,0.032C185.43,116.182,185.424,116.177,185.419,116.173z M185.643,115.578
							c-0.021-0.02-0.029-0.052-0.017-0.083c0.038-0.095,0.081-0.194,0.13-0.296c0.019-0.039,0.065-0.054,0.104-0.036
							c0.04,0.017,0.056,0.064,0.037,0.103c-0.047,0.101-0.089,0.196-0.125,0.288c-0.016,0.04-0.062,0.059-0.103,0.042
							C185.659,115.594,185.65,115.587,185.643,115.578z M185.914,115.008c-0.024-0.025-0.03-0.063-0.014-0.095
							c0.051-0.09,0.104-0.184,0.159-0.277c0.022-0.037,0.07-0.05,0.108-0.027c0.037,0.023,0.049,0.071,0.026,0.108
							c-0.054,0.091-0.106,0.181-0.155,0.272c-0.021,0.038-0.069,0.052-0.106,0.033
							C185.925,115.016,185.919,115.012,185.914,115.008z M186.239,114.461c-0.026-0.024-0.031-0.065-0.01-0.097
							c0.057-0.088,0.116-0.176,0.179-0.265c0.025-0.036,0.074-0.043,0.109-0.02c0.033,0.024,0.044,0.073,0.019,0.109
							c-0.061,0.087-0.119,0.174-0.176,0.261c-0.024,0.037-0.073,0.046-0.108,0.022
							C186.247,114.469,186.244,114.466,186.239,114.461z M186.604,113.942c-0.027-0.027-0.032-0.072-0.008-0.103
							c0.064-0.085,0.129-0.169,0.196-0.253c0.027-0.035,0.076-0.039,0.11-0.012c0.033,0.027,0.04,0.075,0.013,0.11
							c-0.066,0.082-0.131,0.166-0.193,0.249c-0.026,0.035-0.075,0.043-0.11,0.016C186.608,113.949,186.606,113.944,186.604,113.942
							z M186.999,113.448c-0.029-0.031-0.031-0.076-0.004-0.107c0.069-0.083,0.14-0.163,0.211-0.24
							c0.029-0.032,0.079-0.035,0.11-0.006c0.035,0.032,0.035,0.081,0.005,0.111c-0.069,0.078-0.138,0.157-0.207,0.237
							c-0.028,0.033-0.078,0.035-0.11,0.009C187.001,113.45,187,113.449,186.999,113.448z M187.425,112.978
							c-0.03-0.031-0.03-0.079,0-0.11l0.081-0.082c0.049-0.049,0.098-0.097,0.147-0.143c0.032-0.031,0.076-0.028,0.111,0.002
							c0.029,0.032,0.029,0.081-0.003,0.111c-0.048,0.045-0.096,0.091-0.144,0.139l-0.079,0.081
							C187.507,113.008,187.457,113.01,187.425,112.978L187.425,112.978z M187.886,112.542c-0.001-0.001-0.002-0.003-0.004-0.005
							c-0.028-0.033-0.025-0.081,0.008-0.109c0.083-0.073,0.166-0.142,0.248-0.205c0.034-0.027,0.083-0.021,0.109,0.013
							c0.027,0.034,0.021,0.084-0.014,0.111c-0.079,0.061-0.16,0.126-0.241,0.198C187.961,112.572,187.915,112.571,187.886,112.542z
							 M188.496,112.158l-0.054-0.059l-0.042-0.067c0.098-0.063,0.183-0.119,0.264-0.172c0.037-0.024,0.085-0.013,0.108,0.024
							c0.023,0.035,0.013,0.085-0.023,0.108C188.669,112.043,188.585,112.099,188.496,112.158z M188.917,111.807
							c-0.004-0.003-0.007-0.007-0.01-0.013c-0.024-0.036-0.014-0.085,0.022-0.109c0.091-0.059,0.178-0.118,0.26-0.175
							c0.036-0.025,0.085-0.016,0.109,0.019c0.024,0.037,0.017,0.085-0.019,0.111c-0.084,0.058-0.172,0.118-0.264,0.176
							C188.984,111.839,188.943,111.833,188.917,111.807z M189.435,111.441c-0.003-0.002-0.005-0.004-0.007-0.007
							c-0.027-0.034-0.021-0.084,0.014-0.111c0.083-0.064,0.162-0.131,0.239-0.198c0.032-0.03,0.079-0.031,0.111,0.004
							c0.029,0.034,0.026,0.083-0.007,0.112c-0.08,0.071-0.16,0.139-0.247,0.206C189.507,111.472,189.462,111.47,189.435,111.441z
							 M189.906,111.019c-0.03-0.03-0.031-0.079,0-0.109c0.068-0.072,0.138-0.148,0.209-0.233c0.028-0.033,0.078-0.036,0.111-0.008
							c0.032,0.028,0.037,0.077,0.008,0.11c-0.073,0.087-0.145,0.166-0.215,0.24c-0.03,0.032-0.08,0.032-0.111,0.002
							C189.906,111.021,189.906,111.021,189.906,111.019z M190.317,110.537c-0.027-0.027-0.031-0.071-0.007-0.103
							c0.06-0.078,0.123-0.162,0.186-0.253c0.025-0.034,0.075-0.045,0.11-0.019c0.034,0.025,0.044,0.074,0.019,0.11
							c-0.065,0.091-0.128,0.176-0.19,0.256c-0.025,0.035-0.075,0.043-0.11,0.017C190.323,110.542,190.32,110.539,190.317,110.537z
							 M190.685,110.021c-0.026-0.027-0.031-0.068-0.01-0.099c0.056-0.084,0.112-0.171,0.171-0.265
							c0.023-0.037,0.071-0.048,0.108-0.024s0.047,0.072,0.024,0.109c-0.059,0.094-0.118,0.183-0.174,0.268
							c-0.024,0.035-0.072,0.046-0.108,0.02C190.691,110.027,190.688,110.023,190.685,110.021z M188.402,107.479
							c-0.024-0.024-0.03-0.061-0.014-0.094c0.021-0.037,0.069-0.051,0.106-0.031c0.091,0.048,0.185,0.093,0.279,0.129
							c0.041,0.015,0.061,0.061,0.044,0.101c-0.016,0.041-0.061,0.061-0.101,0.045c-0.1-0.04-0.199-0.085-0.296-0.136
							C188.414,107.487,188.408,107.483,188.402,107.479z M188.992,107.707c-0.019-0.02-0.028-0.045-0.021-0.074
							c0.01-0.044,0.052-0.068,0.095-0.059c0.101,0.025,0.203,0.042,0.301,0.049c0.042,0.003,0.075,0.041,0.072,0.084
							c-0.004,0.043-0.042,0.075-0.085,0.072c-0.106-0.008-0.216-0.025-0.325-0.052
							C189.015,107.725,189.002,107.716,188.992,107.707z M191.023,109.485c-0.024-0.024-0.031-0.063-0.013-0.096
							c0.055-0.092,0.103-0.183,0.145-0.272c0.018-0.042,0.064-0.057,0.104-0.037c0.039,0.018,0.056,0.064,0.038,0.104
							c-0.043,0.093-0.094,0.188-0.15,0.287c-0.022,0.037-0.07,0.05-0.108,0.028C191.034,109.495,191.028,109.49,191.023,109.485z
							 M189.622,107.755c-0.013-0.013-0.021-0.029-0.022-0.048c-0.004-0.043,0.027-0.083,0.071-0.085
							c0.1-0.01,0.2-0.028,0.297-0.056c0.042-0.011,0.085,0.012,0.097,0.056c0.011,0.041-0.013,0.085-0.055,0.096
							c-0.106,0.029-0.216,0.05-0.325,0.059C189.66,107.779,189.637,107.771,189.622,107.755z M191.289,108.911
							c-0.021-0.021-0.029-0.05-0.019-0.08c0.033-0.101,0.057-0.2,0.07-0.295c0.006-0.042,0.047-0.073,0.089-0.066
							c0.042,0.006,0.072,0.046,0.066,0.089c-0.015,0.102-0.041,0.21-0.077,0.32c-0.014,0.042-0.059,0.065-0.099,0.05
							C191.307,108.927,191.297,108.918,191.289,108.911z M190.229,107.587c-0.006-0.007-0.011-0.015-0.016-0.022
							c-0.018-0.039-0.001-0.087,0.039-0.104l0.016-0.009c0.096-0.045,0.206-0.073,0.318-0.078c0.043,0,0.08,0.034,0.081,0.076
							c0.002,0.043-0.032,0.081-0.076,0.082c-0.09,0.003-0.178,0.025-0.255,0.062l-0.019,0.009
							C190.287,107.617,190.252,107.609,190.229,107.587z M191.373,108.287c-0.013-0.012-0.021-0.028-0.022-0.048
							c-0.009-0.1-0.034-0.196-0.071-0.281c-0.019-0.039,0-0.086,0.039-0.102c0.04-0.018,0.086,0,0.104,0.039
							c0.045,0.1,0.074,0.21,0.084,0.33c0.004,0.042-0.028,0.082-0.071,0.085C191.412,108.313,191.389,108.303,191.373,108.287z
							 M190.845,107.559c-0.021-0.021-0.029-0.052-0.019-0.083c0.015-0.04,0.061-0.061,0.101-0.045
							c0.11,0.041,0.21,0.102,0.294,0.182c0.035,0.036,0.033,0.08,0.003,0.112c-0.029,0.03-0.079,0.033-0.11,0.002
							c-0.07-0.064-0.151-0.114-0.241-0.149C190.862,107.572,190.852,107.568,190.845,107.559z"/>
					</g>
					<g>
						<path fill="#571500" d="M174.521,120.733c-0.029-0.03-0.031-0.077-0.003-0.109c0.029-0.032,0.078-0.035,0.11-0.004
							c0.042,0.036,0.081,0.074,0.118,0.113c0.03,0.029,0.029,0.081-0.002,0.11c-0.032,0.03-0.083,0.027-0.112-0.003
							c-0.034-0.035-0.07-0.07-0.108-0.105C174.523,120.734,174.522,120.734,174.521,120.733z"/>
					</g>
				</g>
				<g>
					<g>
						<path fill="#571500" d="M188.009,107.217c-0.002-0.002-0.004-0.003-0.005-0.006c0,0-0.04-0.047-0.096-0.133
							c-0.023-0.037-0.013-0.085,0.023-0.109c0.037-0.024,0.085-0.013,0.109,0.024c0.05,0.075,0.084,0.118,0.086,0.12
							c0.027,0.034,0.022,0.083-0.012,0.111C188.082,107.249,188.037,107.245,188.009,107.217z"/>
					</g>
					<g>
						<path fill="#571500" d="M172.057,119.986c-0.026-0.024-0.031-0.065-0.012-0.097c0.023-0.036,0.072-0.047,0.108-0.023
							c0.073,0.043,0.158,0.075,0.263,0.096c0.043,0.009,0.07,0.05,0.062,0.093c-0.008,0.042-0.049,0.069-0.092,0.062
							c-0.125-0.026-0.227-0.063-0.315-0.119C172.065,119.994,172.061,119.99,172.057,119.986z M171.84,119.768
							c-0.004-0.003-0.008-0.008-0.012-0.014c-0.057-0.091-0.097-0.197-0.12-0.314c-0.009-0.042,0.02-0.083,0.062-0.092
							s0.084,0.02,0.092,0.061c0.02,0.1,0.053,0.188,0.1,0.264c0.022,0.036,0.011,0.085-0.026,0.107
							C171.905,119.799,171.865,119.793,171.84,119.768z M172.655,120.127c-0.016-0.016-0.025-0.037-0.023-0.059
							c0.001-0.043,0.039-0.077,0.082-0.076c0.072,0.004,0.147,0.005,0.225,0.006l0.083,0.002c0.043,0,0.078,0.035,0.077,0.078
							c-0.001,0.044-0.037,0.079-0.08,0.078l-0.083-0.001c-0.078-0.002-0.156-0.004-0.229-0.006
							C172.686,120.149,172.667,120.139,172.655,120.127z M171.71,119.168c-0.015-0.013-0.024-0.035-0.022-0.059
							c0.005-0.1,0.021-0.209,0.045-0.321c0.01-0.041,0.052-0.067,0.094-0.058c0.042,0.011,0.069,0.052,0.059,0.093
							c-0.023,0.103-0.038,0.202-0.042,0.293c-0.002,0.044-0.039,0.077-0.083,0.075C171.741,119.191,171.723,119.184,171.71,119.168
							z M173.276,120.147c-0.016-0.015-0.025-0.037-0.023-0.061c0.003-0.043,0.042-0.076,0.084-0.072
							c0.116,0.008,0.22,0.022,0.317,0.043c0.042,0.007,0.069,0.05,0.062,0.092c-0.009,0.042-0.051,0.069-0.093,0.06
							c-0.091-0.02-0.188-0.032-0.298-0.042C173.306,120.167,173.289,120.16,173.276,120.147z M171.844,118.565
							c-0.021-0.021-0.029-0.055-0.018-0.084c0.036-0.096,0.079-0.195,0.128-0.291c0.019-0.039,0.066-0.054,0.105-0.037
							c0.039,0.022,0.055,0.069,0.036,0.107c-0.046,0.091-0.087,0.185-0.122,0.277c-0.015,0.041-0.06,0.061-0.101,0.045
							C171.862,118.58,171.852,118.573,171.844,118.565z M173.881,120.277c-0.022-0.021-0.03-0.054-0.018-0.085
							c0.016-0.041,0.062-0.06,0.102-0.045c0.101,0.042,0.198,0.091,0.29,0.15c0.034,0.021,0.047,0.072,0.023,0.107
							c-0.023,0.036-0.072,0.047-0.108,0.024c-0.083-0.054-0.171-0.099-0.262-0.134
							C173.897,120.291,173.888,120.284,173.881,120.277z M172.121,118.01c-0.025-0.026-0.03-0.066-0.011-0.098
							c0.055-0.087,0.114-0.174,0.179-0.261c0.026-0.035,0.075-0.042,0.109-0.016c0.033,0.025,0.042,0.074,0.017,0.11
							c-0.062,0.082-0.12,0.167-0.172,0.25c-0.023,0.039-0.072,0.05-0.109,0.026C172.13,118.017,172.125,118.014,172.121,118.01z
							 M172.491,117.512c-0.029-0.029-0.031-0.077-0.003-0.106c0.062-0.073,0.127-0.143,0.197-0.211l0.02-0.021
							c0.031-0.029,0.081-0.029,0.111,0c0.031,0.033,0.031,0.081,0,0.112l-0.021,0.021c-0.065,0.065-0.129,0.133-0.189,0.2
							c-0.028,0.034-0.078,0.037-0.11,0.009C172.494,117.513,172.493,117.513,172.491,117.512z M172.934,117.075
							c-0.002-0.002-0.003-0.004-0.005-0.005c-0.027-0.034-0.024-0.082,0.01-0.11c0.08-0.07,0.163-0.135,0.246-0.197
							c0.035-0.027,0.085-0.018,0.11,0.017c0.026,0.035,0.019,0.083-0.016,0.11c-0.083,0.061-0.163,0.125-0.239,0.191
							C173.009,117.105,172.962,117.104,172.934,117.075z M173.54,116.707l-0.052-0.059l-0.042-0.066l0.035-0.021
							c0.076-0.049,0.149-0.098,0.223-0.148c0.036-0.023,0.085-0.014,0.109,0.021c0.024,0.036,0.015,0.085-0.021,0.11
							c-0.074,0.05-0.15,0.101-0.227,0.149L173.54,116.707z M173.944,116.352c-0.003-0.003-0.005-0.006-0.007-0.008
							c-0.026-0.035-0.019-0.085,0.016-0.109c0.083-0.061,0.164-0.126,0.243-0.189c0.035-0.028,0.084-0.02,0.11,0.013
							c0.027,0.033,0.022,0.082-0.012,0.11c-0.081,0.064-0.164,0.13-0.248,0.192C174.015,116.383,173.972,116.378,173.944,116.352z
							 M174.428,115.963c-0.001-0.001-0.002-0.003-0.003-0.005c-0.028-0.033-0.025-0.081,0.007-0.111
							c0.079-0.067,0.155-0.135,0.229-0.205c0.032-0.029,0.084-0.028,0.111,0.003c0.03,0.034,0.027,0.082-0.004,0.112
							c-0.076,0.07-0.154,0.14-0.233,0.209C174.505,115.992,174.458,115.991,174.428,115.963z M174.884,115.539
							C174.884,115.538,174.884,115.538,174.884,115.539c-0.031-0.03-0.031-0.082,0-0.111l0.033-0.033
							c0.062-0.062,0.123-0.125,0.183-0.188c0.03-0.033,0.08-0.034,0.111-0.004c0.028,0.031,0.033,0.081,0.003,0.112
							c-0.061,0.063-0.123,0.127-0.186,0.19l-0.034,0.033C174.964,115.57,174.915,115.57,174.884,115.539z M175.312,115.089
							c-0.029-0.029-0.03-0.078-0.002-0.108c0.07-0.079,0.137-0.157,0.203-0.233c0.028-0.034,0.078-0.037,0.111-0.01
							c0.033,0.03,0.037,0.079,0.009,0.112c-0.066,0.079-0.136,0.157-0.207,0.235c-0.028,0.032-0.079,0.035-0.111,0.004
							C175.314,115.09,175.313,115.089,175.312,115.089z M175.716,114.615c-0.028-0.028-0.031-0.074-0.006-0.105
							c0.066-0.082,0.131-0.162,0.193-0.243c0.026-0.033,0.076-0.04,0.109-0.013c0.033,0.026,0.041,0.076,0.015,0.11
							c-0.063,0.082-0.128,0.164-0.194,0.245c-0.028,0.033-0.077,0.039-0.111,0.011C175.72,114.619,175.718,114.618,175.716,114.615
							z M176.098,114.124c-0.028-0.028-0.031-0.071-0.007-0.101c0.063-0.086,0.124-0.17,0.183-0.25
							c0.025-0.035,0.074-0.044,0.109-0.018c0.035,0.024,0.042,0.074,0.017,0.109c-0.059,0.083-0.121,0.166-0.184,0.25
							c-0.026,0.037-0.075,0.043-0.11,0.018C176.103,114.129,176.1,114.125,176.098,114.124z M176.461,113.62
							c-0.026-0.026-0.031-0.068-0.009-0.1c0.062-0.087,0.121-0.172,0.178-0.255c0.024-0.036,0.073-0.046,0.108-0.019
							c0.036,0.023,0.045,0.073,0.021,0.108c-0.058,0.083-0.117,0.168-0.178,0.255c-0.026,0.037-0.074,0.045-0.11,0.02
							C176.468,113.625,176.464,113.622,176.461,113.62z M176.807,113.104c-0.025-0.026-0.031-0.065-0.012-0.097
							c0.05-0.083,0.101-0.173,0.152-0.267c0.021-0.038,0.07-0.052,0.107-0.031c0.039,0.021,0.052,0.068,0.031,0.106
							c-0.053,0.096-0.104,0.187-0.155,0.272c-0.022,0.039-0.071,0.05-0.108,0.029C176.816,113.112,176.812,113.108,176.807,113.104
							z M177.107,112.559c-0.024-0.024-0.03-0.061-0.014-0.092l0.145-0.277c0.02-0.039,0.068-0.052,0.105-0.032
							c0.04,0.021,0.054,0.066,0.034,0.105l-0.145,0.275c-0.02,0.037-0.068,0.054-0.106,0.033
							C177.12,112.57,177.113,112.564,177.107,112.559z M177.396,112.008c-0.023-0.024-0.031-0.062-0.014-0.092
							c0.048-0.091,0.097-0.185,0.146-0.275c0.021-0.041,0.068-0.052,0.106-0.032c0.038,0.02,0.052,0.068,0.032,0.104
							c-0.049,0.092-0.099,0.186-0.146,0.275c-0.021,0.038-0.068,0.054-0.106,0.032
							C177.408,112.017,177.402,112.012,177.396,112.008z M177.694,111.461c-0.025-0.025-0.03-0.063-0.013-0.094
							c0.052-0.091,0.105-0.182,0.158-0.271c0.023-0.036,0.072-0.049,0.108-0.025c0.038,0.022,0.049,0.07,0.027,0.107
							c-0.054,0.088-0.106,0.176-0.157,0.266c-0.021,0.038-0.069,0.052-0.107,0.031C177.705,111.47,177.699,111.465,177.694,111.461
							z M178.017,110.929c-0.026-0.026-0.031-0.066-0.01-0.098c0.06-0.089,0.119-0.176,0.18-0.259
							c0.026-0.035,0.075-0.043,0.109-0.016c0.035,0.025,0.042,0.074,0.017,0.11c-0.06,0.081-0.118,0.164-0.175,0.253
							c-0.024,0.035-0.073,0.046-0.108,0.021C178.025,110.937,178.021,110.934,178.017,110.929z M178.387,110.43
							c-0.028-0.028-0.031-0.074-0.004-0.106c0.066-0.079,0.133-0.15,0.198-0.216l0.017-0.018c0.031-0.03,0.08-0.03,0.111,0
							c0.031,0.031,0.03,0.081,0,0.111l-0.018,0.018c-0.062,0.061-0.125,0.13-0.188,0.206c-0.028,0.034-0.077,0.036-0.11,0.01
							C178.39,110.433,178.389,110.432,178.387,110.43z M178.832,109.997c-0.003-0.002-0.005-0.004-0.007-0.008
							c-0.026-0.035-0.02-0.084,0.015-0.11c0.091-0.07,0.182-0.129,0.272-0.174c0.039-0.022,0.086-0.006,0.106,0.033
							c0.021,0.037,0.006,0.086-0.032,0.104c-0.083,0.044-0.167,0.098-0.251,0.163C178.903,110.028,178.859,110.025,178.832,109.997
							z M179.381,109.716c-0.009-0.01-0.016-0.022-0.02-0.034c-0.013-0.041,0.011-0.085,0.052-0.097
							c0.092-0.028,0.189-0.063,0.287-0.102c0.041-0.017,0.086,0.002,0.102,0.043c0.017,0.042-0.003,0.087-0.044,0.102
							c-0.102,0.042-0.203,0.078-0.299,0.106C179.432,109.744,179.402,109.734,179.381,109.716z M179.959,109.485
							c-0.006-0.004-0.011-0.012-0.016-0.022c-0.018-0.037-0.002-0.085,0.038-0.104c0.09-0.042,0.182-0.09,0.274-0.138
							c0.039-0.021,0.086-0.006,0.106,0.031c0.02,0.039,0.006,0.087-0.032,0.107c-0.095,0.05-0.188,0.097-0.281,0.142
							C180.018,109.515,179.982,109.509,179.959,109.485z M180.507,109.193c-0.005-0.004-0.008-0.011-0.012-0.016
							c-0.021-0.038-0.01-0.085,0.028-0.108c0.087-0.052,0.174-0.107,0.262-0.164c0.037-0.023,0.085-0.012,0.109,0.024
							c0.023,0.037,0.013,0.085-0.024,0.109c-0.088,0.057-0.178,0.113-0.267,0.166C180.572,109.222,180.532,109.218,180.507,109.193
							z M181.03,108.854c-0.003-0.003-0.006-0.006-0.009-0.011c-0.026-0.035-0.017-0.084,0.019-0.109
							c0.084-0.058,0.168-0.118,0.25-0.18c0.035-0.026,0.083-0.019,0.11,0.016c0.025,0.034,0.018,0.084-0.017,0.11
							c-0.084,0.061-0.169,0.122-0.254,0.183C181.098,108.886,181.056,108.881,181.03,108.854z M181.528,108.485
							c-0.002-0.004-0.003-0.005-0.006-0.009c-0.026-0.033-0.021-0.083,0.013-0.11c0.081-0.064,0.161-0.13,0.239-0.195
							c0.033-0.028,0.087-0.022,0.111,0.008c0.028,0.034,0.024,0.084-0.01,0.111c-0.079,0.067-0.16,0.133-0.243,0.198
							C181.601,108.514,181.556,108.511,181.528,108.485z M182.004,108.083c-0.001-0.001-0.002-0.001-0.003-0.003
							c-0.029-0.033-0.026-0.082,0.006-0.11c0.077-0.071,0.153-0.141,0.225-0.211c0.032-0.029,0.085-0.028,0.111,0.003
							c0.03,0.03,0.029,0.081-0.001,0.11c-0.075,0.073-0.151,0.143-0.23,0.215C182.08,108.112,182.033,108.111,182.004,108.083z
							 M182.452,107.651c-0.03-0.029-0.03-0.081-0.001-0.11c0.073-0.076,0.143-0.151,0.21-0.226
							c0.028-0.033,0.078-0.034,0.111-0.005c0.031,0.029,0.035,0.079,0.006,0.109c-0.068,0.079-0.139,0.155-0.213,0.231
							c-0.031,0.031-0.08,0.033-0.111,0.002C182.453,107.651,182.452,107.651,182.452,107.651z M182.864,107.187
							c-0.027-0.028-0.03-0.074-0.005-0.104c0.066-0.084,0.127-0.164,0.184-0.244c0.025-0.037,0.074-0.046,0.109-0.02
							c0.035,0.024,0.044,0.073,0.019,0.109c-0.058,0.084-0.121,0.167-0.189,0.252c-0.027,0.034-0.076,0.04-0.11,0.012
							C182.868,107.191,182.866,107.188,182.864,107.187z M183.222,106.679c-0.025-0.026-0.03-0.067-0.01-0.099l0.17-0.26
							c0.024-0.036,0.073-0.046,0.109-0.022c0.037,0.024,0.046,0.072,0.023,0.109l-0.17,0.259c-0.023,0.037-0.072,0.045-0.109,0.024
							C183.231,106.687,183.226,106.681,183.222,106.679z M183.565,106.16c-0.026-0.026-0.031-0.067-0.01-0.1
							c0.061-0.088,0.121-0.173,0.183-0.256c0.025-0.034,0.075-0.042,0.11-0.017c0.034,0.026,0.042,0.077,0.015,0.111
							c-0.06,0.081-0.119,0.164-0.177,0.25c-0.025,0.035-0.074,0.045-0.109,0.02C183.573,106.167,183.569,106.165,183.565,106.16z
							 M183.938,105.664c-0.028-0.028-0.031-0.075-0.004-0.105c0.069-0.082,0.139-0.158,0.213-0.234
							c0.031-0.03,0.08-0.033,0.111-0.002c0.034,0.028,0.031,0.081,0.001,0.112c-0.072,0.073-0.14,0.147-0.205,0.226
							c-0.028,0.033-0.078,0.037-0.111,0.009C183.942,105.666,183.941,105.665,183.938,105.664z M184.373,105.219
							c0,0-0.001-0.001-0.002-0.002c-0.028-0.032-0.026-0.083,0.006-0.111c0.074-0.066,0.154-0.133,0.24-0.203
							c0.034-0.028,0.084-0.023,0.111,0.011c0.027,0.035,0.021,0.084-0.012,0.111c-0.084,0.066-0.162,0.133-0.234,0.197
							C184.449,105.251,184.403,105.25,184.373,105.219z M184.858,104.832c-0.003-0.004-0.005-0.007-0.008-0.011
							c-0.025-0.034-0.018-0.083,0.017-0.109c0.081-0.059,0.166-0.119,0.256-0.181c0.036-0.024,0.085-0.015,0.109,0.022
							c0.024,0.035,0.015,0.083-0.02,0.107c-0.09,0.063-0.173,0.12-0.252,0.178C184.928,104.862,184.885,104.857,184.858,104.832z
							 M185.371,104.479c-0.004-0.005-0.008-0.009-0.011-0.013c-0.024-0.036-0.013-0.086,0.023-0.109
							c0.084-0.054,0.172-0.11,0.264-0.167c0.037-0.023,0.085-0.012,0.108,0.024c0.023,0.038,0.012,0.086-0.025,0.109
							c-0.091,0.057-0.178,0.111-0.261,0.166C185.437,104.509,185.396,104.504,185.371,104.479z M187.765,106.82
							c-0.005-0.006-0.011-0.013-0.015-0.021c-0.048-0.097-0.09-0.197-0.125-0.295c-0.014-0.041,0.007-0.085,0.048-0.1
							c0.041-0.013,0.085,0.006,0.1,0.048c0.034,0.093,0.073,0.188,0.118,0.277c0.02,0.039,0.004,0.087-0.036,0.105
							C187.824,106.851,187.788,106.844,187.765,106.82z M187.558,106.234c-0.01-0.011-0.017-0.024-0.021-0.039
							c-0.022-0.104-0.038-0.212-0.045-0.318c-0.002-0.043,0.031-0.081,0.074-0.083c0.043-0.003,0.081,0.028,0.084,0.072
							c0.006,0.098,0.02,0.198,0.042,0.296c0.009,0.042-0.018,0.085-0.06,0.094C187.604,106.263,187.577,106.252,187.558,106.234z
							 M185.901,104.156c-0.005-0.006-0.01-0.012-0.014-0.018c-0.02-0.039-0.006-0.087,0.032-0.108
							c0.096-0.051,0.192-0.098,0.285-0.138c0.04-0.018,0.086,0,0.104,0.042c0.017,0.039-0.001,0.085-0.041,0.102
							c-0.089,0.04-0.181,0.083-0.273,0.133C185.962,104.187,185.925,104.18,185.901,104.156z M187.518,105.617
							c-0.016-0.016-0.025-0.038-0.022-0.062c0.009-0.108,0.028-0.216,0.055-0.318c0.01-0.042,0.053-0.068,0.095-0.059
							c0.042,0.013,0.067,0.055,0.056,0.097c-0.024,0.096-0.041,0.195-0.05,0.294c-0.004,0.042-0.042,0.074-0.085,0.071
							C187.547,105.638,187.53,105.629,187.518,105.617z M186.472,103.913c-0.009-0.009-0.015-0.021-0.02-0.034
							c-0.012-0.041,0.012-0.085,0.053-0.097c0.109-0.033,0.216-0.055,0.316-0.068c0.043-0.004,0.083,0.026,0.088,0.07
							c0.005,0.043-0.025,0.083-0.068,0.087c-0.092,0.011-0.19,0.033-0.291,0.063C186.521,103.941,186.492,103.934,186.472,103.913z
							 M187.655,104.93l0.072,0.032l-0.068-0.041c0.039-0.089,0.064-0.179,0.077-0.268c0.005-0.042,0.045-0.072,0.088-0.065
							c0.042,0.004,0.073,0.043,0.067,0.087c-0.014,0.104-0.043,0.207-0.087,0.308l-0.077-0.02L187.655,104.93z M187.085,103.845
							c-0.016-0.016-0.025-0.04-0.022-0.063c0.005-0.043,0.044-0.074,0.087-0.07c0.119,0.014,0.227,0.047,0.323,0.096
							c0.038,0.021,0.054,0.067,0.034,0.105c-0.02,0.038-0.067,0.053-0.105,0.034c-0.079-0.04-0.17-0.067-0.27-0.08
							C187.114,103.866,187.098,103.857,187.085,103.845z M187.747,104.411c-0.011-0.01-0.018-0.024-0.021-0.038
							c-0.021-0.095-0.06-0.179-0.114-0.251c-0.026-0.035-0.02-0.083,0.015-0.11c0.034-0.026,0.084-0.021,0.11,0.015
							c0.068,0.089,0.117,0.195,0.142,0.311c0.009,0.042-0.017,0.085-0.059,0.094C187.792,104.437,187.765,104.43,187.747,104.411z"
							/>
					</g>
					<g>
						<path fill="#571500" d="M174.521,120.733c-0.001-0.002-0.002-0.002-0.003-0.003c-0.035-0.04-0.069-0.075-0.105-0.109
							c-0.026-0.025-0.032-0.08-0.002-0.112c0.03-0.03,0.08-0.03,0.111-0.001c0.038,0.036,0.077,0.075,0.113,0.117
							c0.028,0.033,0.026,0.082-0.006,0.111C174.598,120.763,174.551,120.762,174.521,120.733z"/>
					</g>
				</g>
			</g>
			<g>
				<circle fill="#784E26" cx="189.279" cy="109.833" r="0.59"/>
				<circle fill="#0E0909" cx="189.279" cy="109.833" r="0.372"/>
			</g>
			<g>
				<circle fill="#784E26" cx="185.782" cy="106.337" r="0.589"/>
				<circle fill="#0E0909" cx="185.782" cy="106.337" r="0.372"/>
			</g>
			<g>
				<circle fill="#784E26" cx="187.558" cy="111.553" r="0.59"/>
				<circle fill="#0E0909" cx="187.558" cy="111.553" r="0.371"/>
			</g>
			<g>
				<circle fill="#784E26" cx="184.062" cy="108.057" r="0.589"/>
				<circle fill="#0E0909" cx="184.062" cy="108.057" r="0.372"/>
			</g>
			<g>
				<circle fill="#784E26" cx="185.838" cy="113.275" r="0.59"/>
				<circle fill="#0E0909" cx="185.837" cy="113.275" r="0.371"/>
			</g>
			<g>
				<circle fill="#784E26" cx="182.341" cy="109.778" r="0.59"/>
				<circle fill="#0E0909" cx="182.341" cy="109.778" r="0.371"/>
			</g>
			<g>
				<circle fill="#784E26" cx="184.117" cy="114.996" r="0.589"/>
				<circle fill="#0E0909" cx="184.117" cy="114.995" r="0.372"/>
			</g>
			<g>
				<circle fill="#784E26" cx="180.621" cy="111.499" r="0.59"/>
				<circle fill="#0E0909" cx="180.621" cy="111.499" r="0.372"/>
			</g>
			<g>
				<circle fill="#784E26" cx="182.396" cy="116.716" r="0.589"/>
				<circle fill="#0E0909" cx="182.396" cy="116.715" r="0.372"/>
			</g>
			<g>
				<circle fill="#784E26" cx="178.899" cy="113.219" r="0.589"/>
				<circle fill="#0E0909" cx="178.9" cy="113.219" r="0.372"/>
			</g>
			<g>
				<circle fill="#784E26" cx="180.676" cy="118.436" r="0.59"/>
				<circle fill="#0E0909" cx="180.676" cy="118.436" r="0.371"/>
			</g>
			<g>
				<circle fill="#784E26" cx="177.179" cy="114.939" r="0.589"/>
				<circle fill="#0E0909" cx="177.179" cy="114.939" r="0.372"/>
			</g>
			<g>
				<circle fill="#784E26" cx="178.955" cy="120.158" r="0.589"/>
				<circle fill="#0E0909" cx="178.955" cy="120.156" r="0.372"/>
			</g>
			<g>
				<circle fill="#784E26" cx="175.458" cy="116.66" r="0.59"/>
				<circle fill="#0E0909" cx="175.459" cy="116.66" r="0.372"/>
			</g>
			<g>
				<circle fill="#784E26" cx="177.235" cy="121.878" r="0.589"/>
				<circle fill="#0E0909" cx="177.234" cy="121.877" r="0.372"/>
			</g>
			<g>
				<circle fill="#784E26" cx="173.738" cy="118.381" r="0.59"/>
				<circle fill="#0E0909" cx="173.738" cy="118.381" r="0.371"/>
			</g>
			<g>
				<g>
					
						<radialGradient id="SVGID_4_" cx="78.1475" cy="122.0918" r="2.0443" gradientTransform="matrix(0.7071 0.7071 -0.7071 0.7071 213.4407 -28.3429)" gradientUnits="userSpaceOnUse">
						<stop  offset="0.1333" style="stop-color:#FFFFFF"/>
						<stop  offset="0.6798" style="stop-color:#F1F2F2"/>
					</radialGradient>
					<path fill="url(#SVGID_4_)" d="M183.839,115.273l-3.496-3.497c-0.153-0.154-0.154-0.403,0-0.556
						c0.153-0.154,0.401-0.152,0.555,0l3.496,3.497c0.153,0.152,0.153,0.401,0,0.553
						C184.241,115.426,183.993,115.426,183.839,115.273z"/>
				</g>
				<g>
					
						<radialGradient id="SVGID_5_" cx="78.1489" cy="119.436" r="2.0713" gradientTransform="matrix(0.7071 0.7071 -0.7071 0.7071 213.4407 -28.3429)" gradientUnits="userSpaceOnUse">
						<stop  offset="0.1333" style="stop-color:#FFFFFF"/>
						<stop  offset="0.6798" style="stop-color:#F1F2F2"/>
					</radialGradient>
					<path fill="url(#SVGID_5_)" d="M185.56,113.551c-0.028-0.028-0.054-0.061-0.073-0.099c-1.345-2.651-3.247-3.293-3.266-3.299
						c-0.205-0.068-0.32-0.289-0.254-0.494c0.066-0.205,0.286-0.32,0.492-0.255c0.089,0.028,2.225,0.728,3.728,3.693
						c0.099,0.194,0.021,0.429-0.172,0.527C185.859,113.705,185.676,113.67,185.56,113.551z"/>
				</g>
				<g>
					
						<radialGradient id="SVGID_6_" cx="78.1484" cy="117.0737" r="2.0713" gradientTransform="matrix(0.7071 0.7071 -0.7071 0.7071 213.4407 -28.3429)" gradientUnits="userSpaceOnUse">
						<stop  offset="0.1333" style="stop-color:#FFFFFF"/>
						<stop  offset="0.6798" style="stop-color:#F1F2F2"/>
					</radialGradient>
					<path fill="url(#SVGID_6_)" d="M187.231,111.881c-0.029-0.028-0.053-0.061-0.072-0.1c-1.345-2.651-3.247-3.294-3.267-3.301
						c-0.204-0.065-0.319-0.285-0.253-0.492c0.066-0.206,0.285-0.319,0.491-0.255c0.09,0.028,2.225,0.729,3.728,3.692
						c0.099,0.194,0.021,0.431-0.173,0.527C187.53,112.032,187.348,111.998,187.231,111.881z"/>
				</g>
				<g>
					
						<radialGradient id="SVGID_7_" cx="78.1494" cy="114.7109" r="2.0713" gradientTransform="matrix(0.7071 0.7071 -0.7071 0.7071 213.4407 -28.3429)" gradientUnits="userSpaceOnUse">
						<stop  offset="0.1333" style="stop-color:#FFFFFF"/>
						<stop  offset="0.6798" style="stop-color:#F1F2F2"/>
					</radialGradient>
					<path fill="url(#SVGID_7_)" d="M188.901,110.21c-0.028-0.028-0.053-0.062-0.072-0.1c-1.344-2.651-3.247-3.293-3.266-3.3
						c-0.205-0.066-0.319-0.288-0.253-0.492c0.066-0.206,0.284-0.32,0.491-0.256c0.09,0.028,2.226,0.728,3.729,3.694
						c0.098,0.192,0.021,0.43-0.173,0.527C189.201,110.363,189.018,110.328,188.901,110.21z"/>
				</g>
				<g>
					
						<radialGradient id="SVGID_8_" cx="78.1489" cy="124.5244" r="2.0449" gradientTransform="matrix(0.7071 0.7071 -0.7071 0.7071 213.4407 -28.3429)" gradientUnits="userSpaceOnUse">
						<stop  offset="0.1333" style="stop-color:#FFFFFF"/>
						<stop  offset="0.6798" style="stop-color:#F1F2F2"/>
					</radialGradient>
					<path fill="url(#SVGID_8_)" d="M182.119,116.992l-3.497-3.497c-0.153-0.152-0.153-0.401,0-0.553
						c0.154-0.155,0.401-0.155,0.555,0l3.496,3.497c0.154,0.152,0.154,0.401,0,0.556
						C182.521,117.147,182.272,117.147,182.119,116.992z"/>
				</g>
				<g>
					
						<radialGradient id="SVGID_9_" cx="78.1484" cy="127.1787" r="2.0714" gradientTransform="matrix(0.7071 0.7071 -0.7071 0.7071 213.4407 -28.3429)" gradientUnits="userSpaceOnUse">
						<stop  offset="0.1333" style="stop-color:#FFFFFF"/>
						<stop  offset="0.6798" style="stop-color:#F1F2F2"/>
					</radialGradient>
					<path fill="url(#SVGID_9_)" d="M178.452,117.393c-0.544-0.544-1.119-1.282-1.623-2.275c-0.098-0.193-0.021-0.43,0.173-0.527
						c0.193-0.097,0.43-0.023,0.527,0.171c1.344,2.654,3.247,3.294,3.266,3.302c0.205,0.066,0.32,0.287,0.254,0.492
						c-0.066,0.206-0.285,0.319-0.491,0.256C180.498,118.792,179.533,118.476,178.452,117.393z"/>
				</g>
				<g>
					
						<radialGradient id="SVGID_10_" cx="78.1484" cy="129.543" r="2.0718" gradientTransform="matrix(0.7071 0.7071 -0.7071 0.7071 213.4407 -28.3429)" gradientUnits="userSpaceOnUse">
						<stop  offset="0.1333" style="stop-color:#FFFFFF"/>
						<stop  offset="0.6798" style="stop-color:#F1F2F2"/>
					</radialGradient>
					<path fill="url(#SVGID_10_)" d="M176.781,119.066c-0.544-0.545-1.119-1.286-1.622-2.279c-0.098-0.194-0.021-0.429,0.172-0.527
						c0.194-0.098,0.43-0.02,0.528,0.173c1.354,2.673,3.244,3.293,3.264,3.299c0.206,0.065,0.322,0.286,0.257,0.491
						c-0.065,0.206-0.286,0.322-0.493,0.256C178.827,120.461,177.862,120.147,176.781,119.066z"/>
				</g>
				<g>
					
						<radialGradient id="SVGID_11_" cx="78.1484" cy="131.9043" r="2.0714" gradientTransform="matrix(0.7071 0.7071 -0.7071 0.7071 213.4407 -28.3429)" gradientUnits="userSpaceOnUse">
						<stop  offset="0.1333" style="stop-color:#FFFFFF"/>
						<stop  offset="0.6798" style="stop-color:#F1F2F2"/>
					</radialGradient>
					<path fill="url(#SVGID_11_)" d="M175.11,120.735c-0.544-0.544-1.119-1.282-1.623-2.275c-0.099-0.193-0.021-0.43,0.173-0.528
						c0.193-0.098,0.43-0.021,0.528,0.172c1.343,2.653,3.246,3.295,3.265,3.3c0.205,0.067,0.319,0.288,0.253,0.494
						c-0.066,0.205-0.285,0.319-0.491,0.255C177.157,122.134,176.191,121.818,175.11,120.735z"/>
				</g>
			</g>
			
				<rect x="162.525" y="113.727" transform="matrix(0.7071 -0.7071 0.7071 0.7071 -27.2562 161.773)" fill="#BCBEC0" width="38.254" height="0.122"/>
			
				<rect x="162.439" y="113.642" transform="matrix(0.7071 -0.7071 0.7071 0.7071 -27.2191 161.6928)" fill="#231F20" width="38.254" height="0.12"/>
		</g>
		<g>
			<defs>
				<circle id="SVGID_12_" cx="137.668" cy="99.447" r="68.506"/>
			</defs>
			<clipPath id="SVGID_13_">
				<use xlink:href="#SVGID_12_"  overflow="visible"/>
			</clipPath>
			<g clip-path="url(#SVGID_13_)">
				<path fill="#784E26" d="M113.66,105.011c0,0-9.479-4.503-11.909-14.665c-3.45-14.413,0.373-28.283,7.878-27.014
					c3.676,6.486,5.737,7.971,5.737,7.971S112.207,98.287,113.66,105.011z"/>
				<g>
					<ellipse fill="#FEE1B9" cx="137.554" cy="86.083" rx="29.452" ry="33.52"/>
					<rect x="129.868" y="113.141" fill="#FEE1B9" width="14.111" height="17.322"/>
					<path fill="#FEE1B9" d="M136.924,128.055c-20.117,0-36.43,17.496-36.43,39.901h72.861
						C173.355,145.551,157.041,128.055,136.924,128.055z"/>
					<g>
						<g>
							<path fill="none" stroke="#784E26" stroke-width="1.0609" stroke-miterlimit="10" d="M130.009,83.343
								c0,0-4.487-4.627-10.188,0"/>
							<g>
								<circle fill="#231F20" cx="124.917" cy="86.955" r="1.193"/>
								<path fill="#231F20" d="M124.917,88.576c-0.894,0-1.621-0.727-1.621-1.621c0-0.893,0.727-1.62,1.621-1.62
									s1.621,0.727,1.621,1.62C126.538,87.849,125.811,88.576,124.917,88.576z M124.917,86.19c-0.422,0-0.765,0.343-0.765,0.765
									s0.343,0.766,0.765,0.766c0.422,0,0.766-0.344,0.766-0.766S125.339,86.19,124.917,86.19z"/>
							</g>
						</g>
						<g>
							<path fill="none" stroke="#784E26" stroke-width="1.0609" stroke-miterlimit="10" d="M145.095,83.343
								c0,0,4.487-4.627,10.189,0"/>
							<g>
								<path fill="#231F20" d="M151.383,86.955c0-0.659-0.531-1.193-1.192-1.193c-0.663,0-1.194,0.534-1.194,1.193
									s0.531,1.193,1.194,1.193C150.853,88.148,151.383,87.614,151.383,86.955z"/>
								<path fill="#231F20" d="M150.191,88.576c-0.895,0-1.622-0.727-1.622-1.621c0-0.893,0.728-1.62,1.622-1.62
									c0.893,0,1.62,0.727,1.62,1.62C151.811,87.849,151.084,88.576,150.191,88.576z M150.191,86.19
									c-0.423,0-0.767,0.343-0.767,0.765s0.344,0.766,0.767,0.766c0.421,0,0.765-0.344,0.765-0.766S150.613,86.19,150.191,86.19z"
									/>
							</g>
						</g>
					</g>
				</g>
				<path fill="#FFFFFF" d="M137.445,110.241c3.374,0,6.109-2.342,6.109-5.229h-12.216
					C131.338,107.899,134.071,110.241,137.445,110.241z"/>
				<path fill="#FEE1B9" d="M103.293,91.211c-0.46-4.525,2.003-8.577,5.503-9.05c3.5-0.472,6.71,2.813,7.17,7.337
					c0.462,4.525-2.005,8.575-5.501,9.05C106.965,99.022,103.754,95.736,103.293,91.211z"/>
				<path fill="#FEE1B9" d="M165.252,98.563c-3.488-0.388-5.843-4.381-5.253-8.915c0.584-4.538,3.888-7.907,7.377-7.521
					c3.484,0.387,5.836,4.378,5.248,8.915C172.039,95.581,168.737,98.948,165.252,98.563z"/>
				<path fill="#784E26" d="M117.547,72.382c0,0-6.957,12.546-4.722,21.426c-5.426-6.969-7.083-17.097-7.083-17.097l4.159-12.907
					L117.547,72.382z"/>
				<path fill="#784E26" d="M153.637,69.545c0,0,13.202,12.16,10.967,21.04c5.426-6.969,9.37-18.861,9.37-18.861l-6.445-11.143
					L153.637,69.545z"/>
				<path fill="#784E26" d="M109.901,63.804c0,0,4.088-36.193,48.605-16.04c30.617,13.86,8.87,34.364,8.87,34.364
					s-33.154-21.613-49.829-9.746C106.857,79.991,109.901,63.804,109.901,63.804z"/>
				<path fill="#FC9224" d="M154.177,132.778c-0.875,11.603-8.265,20.664-17.252,20.664c-8.987,0-16.376-9.061-17.253-20.664
					c-2.398,1.397-4.625,3.097-6.664,5.028v30.149h47.813v-30.171C158.786,135.863,156.569,134.17,154.177,132.778z"/>
			</g>
		</g>
	</g>
	<g id="BUSINESSMAN">
		<circle fill="#61BBC4" cx="421.868" cy="56.349" r="31.101"/>
		<g>
			<g>
				<path fill="#103754" d="M441.754,57.297c-0.071,0.143-0.209,0.219-0.309,0.174c-1.578-0.71-3.385-0.71-4.964,0
					c-0.101,0.045-0.237-0.031-0.31-0.174c-0.004-0.012-0.01-0.021-0.016-0.032c-0.07-0.143-0.039-0.304,0.074-0.354
					c1.738-0.78,3.728-0.78,5.467,0c0.111,0.051,0.144,0.212,0.072,0.354C441.764,57.276,441.76,57.286,441.754,57.297z"/>
				<path fill="#174F78" d="M441.697,56.911c-1.738-0.78-3.729-0.78-5.467,0c-0.113,0.051-0.145,0.212-0.074,0.354
					c1.771-0.867,3.844-0.867,5.613,0C441.841,57.123,441.809,56.961,441.697,56.911z"/>
			</g>
			<g>
				<g>
					<path fill="#B1B6B2" d="M436.746,58.946c0,0.105-0.086,0.19-0.191,0.19h-0.031c-0.105,0-0.191-0.085-0.191-0.19v-1.624
						c0-0.106,0.086-0.192,0.191-0.192h0.031c0.105,0,0.191,0.086,0.191,0.192V58.946z"/>
					<circle fill="#B1B6B2" cx="436.539" cy="58.228" r="0.462"/>
				</g>
				<g>
					<path fill="#B1B6B2" d="M441.596,58.946c0,0.105-0.086,0.19-0.191,0.19h-0.032c-0.105,0-0.19-0.085-0.19-0.19v-1.624
						c0-0.106,0.085-0.192,0.19-0.192h0.032c0.105,0,0.191,0.086,0.191,0.192V58.946z"/>
					<circle fill="#B1B6B2" cx="441.388" cy="58.228" r="0.462"/>
				</g>
			</g>
			<path fill="#103754" d="M447.689,69.361c0,0.316-0.256,0.572-0.572,0.572H430.81c-0.317,0-0.573-0.256-0.573-0.572V58.787
				c0-0.317,0.256-0.573,0.573-0.573h16.308c0.316,0,0.572,0.256,0.572,0.573V69.361z"/>
			<path fill="#174F78" d="M447.689,62.672c0,0.315-0.252,0.637-0.564,0.713c-5.365,1.283-10.959,1.283-16.324,0
				c-0.312-0.076-0.564-0.397-0.564-0.713c0-1.295,0-2.591,0-3.886c0-0.315,0.256-0.571,0.573-0.573c5.436,0,10.872,0,16.308,0
				c0.316,0.002,0.572,0.258,0.572,0.573C447.689,60.082,447.689,61.377,447.689,62.672z"/>
			<path fill="#103754" d="M437.849,58.181v5.083c0,0.254,0.085,0.459,0.19,0.459h1.848c0.105,0,0.191-0.205,0.191-0.459v-5.083
				H437.849z"/>
			<g>
				<path fill="#D1ECFB" d="M439.951,65.538c-0.001,0.094-0.074,0.197-0.165,0.227c-0.536,0.166-1.109,0.166-1.646,0
					c-0.092-0.029-0.165-0.133-0.165-0.227c0-0.657,0-1.314,0-1.974c0-0.093,0.073-0.196,0.165-0.226
					c0.536-0.165,1.109-0.165,1.646,0c0.091,0.029,0.164,0.133,0.165,0.226C439.951,64.223,439.951,64.88,439.951,65.538z"/>
				<path fill="#B1B6B2" d="M439.786,63.406c-0.536-0.156-1.109-0.156-1.646,0c-0.092,0.026-0.165,0.126-0.165,0.213
					c0,0.287,0,0.572,0,0.859c0.007,0,0.013,0.003,0.019,0.003c0.652,0,1.304,0,1.957,0c0-0.288,0-0.575,0-0.862
					C439.95,63.532,439.877,63.432,439.786,63.406z"/>
				<path fill="#A6DAE9" d="M437.976,64.665c0,0.291,0,0.583,0,0.873c0,0.094,0.073,0.197,0.165,0.227
					c0.536,0.166,1.109,0.166,1.646,0c0.091-0.029,0.164-0.133,0.165-0.227c0-0.29,0-0.582,0-0.873H437.976z"/>
				<path fill="#D1ECFB" d="M438.963,65.719c-0.262,0-0.521-0.039-0.772-0.116c-0.02-0.007-0.045-0.045-0.045-0.063v-0.706h1.636
					v0.704c0,0.021-0.027,0.059-0.047,0.065C439.485,65.68,439.226,65.719,438.963,65.719L438.963,65.719z"/>
			</g>
		</g>
		<g>
			<defs>
				<circle id="SVGID_14_" cx="421.868" cy="56.349" r="31.101"/>
			</defs>
			<clipPath id="SVGID_15_">
				<use xlink:href="#SVGID_14_"  overflow="visible"/>
			</clipPath>
			<g clip-path="url(#SVGID_15_)">
				<path fill="#FEE1B9" d="M416.756,68.806c-9.133,0-16.54,7.943-16.54,18.113h33.079C433.295,76.75,425.889,68.806,416.756,68.806
					z"/>
				<path fill="#2D3E50" d="M433.295,87.451v-3.742c0-8.004-6.594-14.491-14.729-14.491h-3.583c-8.134,0-14.729,6.487-14.729,14.491
					v3.742H433.295z"/>
				<polyline fill="#FFFFFF" points="411.845,69.555 417.041,87.451 421.508,69.506 				"/>
				<polygon fill="#E63A26" points="417.658,74.225 418.9,72.898 416.676,70.904 415.177,72.898 416.418,74.225 414.828,83.352 
					417.037,87.451 419.299,83.602 				"/>
				<g>
					<path fill="#4D4D4D" d="M406.194,58.344c0,0-4.303-2.044-5.407-6.657c-1.565-6.544,0.169-12.84,3.577-12.265
						c1.668,2.945,2.604,3.619,2.604,3.619S405.535,55.291,406.194,58.344z"/>
					<g>
						<ellipse fill="#FEE1B9" cx="417.042" cy="49.75" rx="13.371" ry="15.216"/>
						<polygon fill="#FEE1B9" points="419.959,69.898 416.676,70.904 413.553,69.898 413.553,62.036 419.959,62.036 						"/>
						<g>
							<g>
								<path fill="none" stroke="#4D4D4D" stroke-width="1.0609" stroke-miterlimit="10" d="M413.617,48.507
									c0,0-2.037-2.102-4.626,0"/>
								<g>
									<circle fill="#231F20" cx="411.304" cy="50.147" r="0.542"/>
									<path fill="#231F20" d="M411.304,50.883c-0.404,0-0.734-0.33-0.734-0.736c0-0.404,0.33-0.735,0.734-0.735
										c0.406,0,0.736,0.331,0.736,0.735C412.04,50.553,411.71,50.883,411.304,50.883z M411.304,49.799
										c-0.19,0-0.346,0.156-0.346,0.348c0,0.192,0.155,0.348,0.346,0.348c0.192,0,0.349-0.155,0.349-0.348
										C411.652,49.956,411.496,49.799,411.304,49.799z"/>
								</g>
							</g>
							<g>
								<path fill="none" stroke="#4D4D4D" stroke-width="1.0609" stroke-miterlimit="10" d="M420.466,48.507
									c0,0,2.036-2.102,4.625,0"/>
								<g>
									<circle fill="#231F20" cx="422.779" cy="50.147" r="0.542"/>
									<path fill="#231F20" d="M422.778,50.883c-0.405,0-0.735-0.33-0.735-0.736c0-0.404,0.33-0.735,0.735-0.735
										c0.406,0,0.735,0.331,0.735,0.735C423.514,50.553,423.185,50.883,422.778,50.883z M422.778,49.799
										c-0.191,0-0.347,0.156-0.347,0.348c0,0.192,0.155,0.348,0.347,0.348c0.192,0,0.349-0.155,0.349-0.348
										C423.127,49.956,422.971,49.799,422.778,49.799z"/>
								</g>
							</g>
						</g>
					</g>
					<path fill="#FFFFFF" d="M416.992,60.717c1.532,0,2.773-1.062,2.773-2.373h-5.546C414.22,59.656,415.461,60.717,416.992,60.717z
						"/>
					<path fill="#FEE1B9" d="M401.487,52.079c-0.209-2.054,0.91-3.894,2.499-4.108c1.589-0.214,3.046,1.277,3.255,3.331
						c0.209,2.055-0.91,3.894-2.498,4.109C403.154,55.625,401.696,54.133,401.487,52.079z"/>
					<path fill="#FEE1B9" d="M429.616,55.417c-1.584-0.176-2.652-1.989-2.385-4.047c0.265-2.061,1.765-3.591,3.349-3.415
						c1.582,0.176,2.649,1.987,2.383,4.047C432.697,54.063,431.199,55.592,429.616,55.417z"/>
					<path fill="#4D4D4D" d="M407.958,43.531c0,0-3.157,5.697-2.143,9.728c-2.464-3.164-3.217-7.762-3.217-7.762l1.889-5.859
						L407.958,43.531z"/>
					<path fill="#4D4D4D" d="M425.434,42.24c0,0,3.409,6.988,2.395,11.019c2.464-3.164,3.217-7.762,3.217-7.762l-1.889-5.859
						L425.434,42.24z"/>
				</g>
				<path fill="#4D4D4D" d="M403.671,39.637c0,0-0.083-9.644,8.474-10.73c6.207-0.788,9.701,5.345,17.939,0.673
					c-0.068,6.392-1.683,13.227-8.582,14.114c-6.9,0.887-9.662-1.184-13.711,0.155C406.688,41.377,403.671,39.637,403.671,39.637z"
					/>
				<path fill="#4D4D4D" d="M430.318,47.95c0,0,3.323-7.829-2.039-11.57c-3.73,3.867-3.803,5.353-3.803,5.353
					S427.872,43.025,430.318,47.95z"/>
				<path fill="#35496C" d="M417.041,87.451l7.023-10.988l-2.125-1.015l3.382-0.965l1.431-2.823c0,0-2.303-1.773-5.244-2.108
					C420.717,72.686,417.041,87.451,417.041,87.451z"/>
				<path fill="#35496C" d="M417.041,87.451l-7.022-10.988l2.125-1.015l-3.381-0.965l-1.513-3.157c0,0,2.282-1.409,5.243-2.108
					C413.284,72.351,417.041,87.451,417.041,87.451z"/>
				<path fill="#F1F2F2" d="M413.455,69.058l3.219,1.771l3.377-1.771l3.314,0.726l-2.786,4.804l-3.905-3.618l-3.219,3.493
					l-3.302-4.621C410.153,69.841,412.229,69.029,413.455,69.058z"/>
			</g>
		</g>
	</g>
	<g id="doctor">
		<circle fill="#6980A2" cx="599.335" cy="136.269" r="52.504"/>
		<g>
			<g>
				<path fill="#94C915" d="M615.733,148.477c0.557-0.558,1.126-0.927,1.719-1.174c0.521-0.217,1.061-0.34,1.633-0.399
					c1-0.1,2.092,0.007,3.251,0.166c0.715,0.098,1.453,0.213,2.212,0.305l-1.473-1.471c-1.303-0.189-2.606-0.366-3.899-0.271
					c-0.757,0.057-1.512,0.212-2.243,0.522c-0.731,0.309-1.435,0.776-2.09,1.431L615.733,148.477z"/>
				<path fill="#94C915" d="M633.322,136.751c0.222,1.544,0.457,2.996,0.356,4.294c-0.048,0.651-0.178,1.262-0.426,1.845
					c-0.249,0.584-0.614,1.144-1.164,1.693c-0.567,0.568-1.152,0.952-1.768,1.219c-0.537,0.232-1.101,0.373-1.692,0.448
					c-1.035,0.132-2.162,0.058-3.346-0.074c-0.712-0.079-1.445-0.175-2.191-0.255l1.437,1.434c1.346,0.162,2.7,0.304,4.037,0.17
					c0.776-0.08,1.547-0.255,2.292-0.583c0.743-0.327,1.46-0.805,2.121-1.468c0.666-0.666,1.139-1.382,1.448-2.127
					c0.271-0.651,0.421-1.319,0.488-1.992c0.119-1.175-0.008-2.361-0.17-3.546c-0.027-0.19-0.054-0.38-0.08-0.571l-1.473-1.471
					C633.232,136.1,633.277,136.427,633.322,136.751z"/>
				<path fill="#A6D81D" d="M634.188,131.971c0.048-0.649,0.178-1.26,0.426-1.843c0.248-0.584,0.614-1.144,1.162-1.693l-0.891-0.89
					c-0.664,0.665-1.135,1.381-1.444,2.124c-0.273,0.651-0.423,1.321-0.49,1.992c-0.117,1.177,0.01,2.363,0.171,3.548
					c0.026,0.19,0.054,0.38,0.081,0.569l1.472,1.473c-0.039-0.333-0.084-0.661-0.13-0.983
					C634.322,134.721,634.087,133.271,634.188,131.971z"/>
				<path fill="#F6AA00" d="M629.212,136.779c0.998-0.102,2.092,0.005,3.25,0.166c0.714,0.097,1.453,0.214,2.212,0.306l-1.472-1.473
					c-1.303-0.187-2.607-0.366-3.902-0.271c-0.756,0.057-1.509,0.212-2.24,0.522c-0.733,0.311-1.438,0.776-2.092,1.433
					c-0.673,0.673-1.156,1.401-1.483,2.159c-0.287,0.661-0.455,1.346-0.541,2.034c-0.152,1.206-0.063,2.426,0.07,3.642
					c0.023,0.207,0.047,0.413,0.073,0.618l1.434,1.435c-0.034-0.316-0.069-0.628-0.107-0.938c-0.19-1.568-0.383-3.061-0.244-4.406
					c0.069-0.673,0.218-1.308,0.482-1.912c0.266-0.604,0.648-1.182,1.206-1.74c0.56-0.558,1.129-0.927,1.722-1.176
					C628.098,136.96,628.639,136.836,629.212,136.779z"/>
				<path fill="#F6AA00" d="M623.553,151.172c-0.049,0.651-0.179,1.262-0.426,1.845c-0.248,0.583-0.615,1.144-1.162,1.691
					l0.891,0.892c0.665-0.667,1.135-1.383,1.444-2.125c0.272-0.651,0.422-1.321,0.49-1.992c0.117-1.175-0.01-2.361-0.172-3.546
					c-0.026-0.19-0.054-0.38-0.08-0.571l-1.473-1.471c0.042,0.333,0.085,0.66,0.13,0.983
					C623.417,148.422,623.653,149.873,623.553,151.172z"/>
				<path fill="#F6AA00" d="M642.006,134.666c-0.557,0.558-1.125,0.927-1.719,1.176c-0.52,0.217-1.06,0.34-1.632,0.397
					c-0.998,0.102-2.092-0.005-3.25-0.166c-0.714-0.097-1.453-0.214-2.213-0.306l1.473,1.473c1.302,0.187,2.606,0.366,3.9,0.271
					c0.756-0.057,1.511-0.212,2.242-0.522s1.436-0.776,2.09-1.433L642.006,134.666z"/>
				<path fill="#F6AA00" d="M624.79,151.482c0.117-1.175-0.01-2.361-0.172-3.546c-0.026-0.19-0.054-0.38-0.08-0.571l-0.018-0.017
					c-0.034-0.316-0.069-0.628-0.107-0.938c-0.19-1.568-0.383-3.061-0.244-4.406c0.069-0.673,0.218-1.308,0.482-1.912
					c0.266-0.604,0.648-1.182,1.206-1.74c0.56-0.558,1.129-0.927,1.722-1.176c0.519-0.217,1.06-0.34,1.633-0.397
					c0.998-0.102,2.092,0.005,3.25,0.166c0.714,0.097,1.453,0.214,2.212,0.306l-0.009-0.01c1.302,0.187,2.606,0.366,3.9,0.271
					c0.756-0.057,1.511-0.212,2.242-0.522s1.436-0.776,2.09-1.433l-0.892-0.89c-0.557,0.558-1.125,0.927-1.719,1.176
					c-0.52,0.217-1.06,0.34-1.632,0.397c-0.998,0.102-2.092-0.005-3.25-0.166c-0.714-0.097-1.453-0.214-2.213-0.306l0.01,0.01
					c-1.303-0.187-2.607-0.366-3.902-0.271c-0.756,0.057-1.509,0.212-2.24,0.522c-0.733,0.311-1.438,0.776-2.092,1.433
					c-0.673,0.673-1.156,1.401-1.483,2.159c-0.287,0.661-0.455,1.346-0.541,2.034c-0.152,1.206-0.063,2.426,0.07,3.642
					c0.023,0.207,0.047,0.413,0.073,0.618l-0.021-0.02c0.042,0.333,0.085,0.66,0.13,0.983c0.222,1.544,0.458,2.996,0.357,4.294
					c-0.049,0.651-0.179,1.262-0.426,1.845c-0.248,0.583-0.615,1.144-1.162,1.691l0.891,0.892c0.665-0.667,1.135-1.383,1.444-2.125
					C624.572,152.823,624.722,152.154,624.79,151.482z"/>
			</g>
			<g>
				<path fill="#FFB92C" d="M629.253,141.192l-3.998-3.999c-0.1,0.089-0.198,0.181-0.295,0.277
					c-0.165,0.164-0.314,0.329-0.456,0.498l3.987,3.987L629.253,141.192z"/>
				<path fill="#FFB92C" d="M630.753,139.693l-3.667-3.667c-0.338,0.14-0.673,0.314-0.999,0.526l3.903,3.904L630.753,139.693z"/>
				<path fill="#FFB92C" d="M632.253,138.194l-2.689-2.69c-0.457,0.021-0.909,0.073-1.354,0.172l3.281,3.281L632.253,138.194z"/>
				<path fill="#FFB92C" d="M626.255,144.191l-3.206-3.204c-0.093,0.444-0.146,0.895-0.174,1.353l2.616,2.615L626.255,144.191z"/>
				<path fill="#FFB92C" d="M627.754,142.692l-3.863-3.864c-0.202,0.334-0.369,0.676-0.505,1.022l3.605,3.604L627.754,142.692z"/>
			</g>
			<g>
				<path fill="#94C915" d="M620.639,149.803l-3.666-3.665c-0.339,0.14-0.671,0.315-0.998,0.527l3.9,3.9L620.639,149.803z"/>
				<path fill="#94C915" d="M622.138,148.304l-2.687-2.687c-0.457,0.02-0.909,0.073-1.356,0.17l3.279,3.279L622.138,148.304z"/>
			</g>
			<g>
				<path fill="#A6D81D" d="M636.274,134.168l-3.204-3.204c-0.092,0.446-0.147,0.897-0.174,1.353l2.615,2.615L636.274,134.168z"/>
				<path fill="#A6D81D" d="M637.773,132.669l-3.861-3.862c-0.203,0.334-0.368,0.675-0.504,1.022l3.603,3.603L637.773,132.669z"/>
			</g>
			<path fill="#F6AA00" d="M624.304,153.469l-3.665-3.667l-0.764,0.763l3.902,3.902
				C623.989,154.141,624.162,153.807,624.304,153.469z"/>
			<path fill="#94C915" d="M631.613,146.552l-3.861-3.862l-0.763,0.763l3.603,3.602
				C630.938,146.921,631.278,146.754,631.613,146.552z"/>
			<path fill="#94C915" d="M628.104,147.565c0.455-0.025,0.908-0.08,1.352-0.173l-3.203-3.203l-0.762,0.763L628.104,147.565z"/>
			<path fill="#F6AA00" d="M639.477,137.371l-3.202-3.203l-0.763,0.763l2.612,2.615C638.58,137.519,639.031,137.466,639.477,137.371
				z"/>
			<path fill="#94C915" d="M634.938,140.878l-2.688-2.688l-0.763,0.763l3.279,3.279
				C634.863,141.787,634.918,141.334,634.938,140.878z"/>
			<path fill="#F6AA00" d="M624.825,150.992l-2.688-2.688l-0.764,0.763l3.279,3.279C624.751,151.9,624.804,151.447,624.825,150.992z
				"/>
			<path fill="#94C915" d="M630.751,139.691l-0.763,0.763l3.9,3.9c0.212-0.328,0.387-0.662,0.527-0.999L630.751,139.691z"/>
			<path fill="#F6AA00" d="M637.011,133.432l3.603,3.604c0.346-0.135,0.688-0.302,1.022-0.504l-3.862-3.862L637.011,133.432z"/>
			<path fill="#94C915" d="M632.972,145.482c0.097-0.097,0.188-0.195,0.277-0.294l-3.997-3.997l-0.764,0.763l3.985,3.984
				C632.641,145.797,632.809,145.646,632.972,145.482z"/>
			<path fill="#FFB92C" d="M624.373,146.069c-0.177-1.442-0.332-2.818-0.204-4.065c0.069-0.673,0.218-1.308,0.482-1.912
				c0.266-0.604,0.648-1.182,1.206-1.74c0.56-0.558,1.129-0.927,1.722-1.176c0.519-0.217,1.06-0.34,1.633-0.397
				c0.998-0.102,2.092,0.005,3.25,0.166c0.298,0.04,0.602,0.083,0.907,0.128l1.127-1.128c-0.427-0.062-0.861-0.124-1.304-0.177
				l0.01,0.01c-1.303-0.187-2.607-0.366-3.902-0.271c-0.756,0.057-1.509,0.212-2.24,0.522c-0.733,0.311-1.438,0.776-2.092,1.433
				c-0.673,0.673-1.156,1.401-1.483,2.159c-0.287,0.661-0.455,1.346-0.541,2.034c-0.152,1.206-0.063,2.426,0.07,3.642
				c0.023,0.207,0.047,0.413,0.073,0.618l-0.021-0.02c0.042,0.333,0.085,0.66,0.13,0.983c0.017,0.109,0.032,0.214,0.048,0.321
				L624.373,146.069z"/>
		</g>
		<g>
			<defs>
				<circle id="SVGID_16_" cx="599.335" cy="136.269" r="52.504"/>
			</defs>
			<clipPath id="SVGID_17_">
				<use xlink:href="#SVGID_16_"  overflow="visible"/>
			</clipPath>
			<g clip-path="url(#SVGID_17_)">
				<path fill="#FEE1B9" d="M587.555,157.298c-15.416,0-27.92,13.409-27.92,30.58h55.842
					C615.477,170.707,602.973,157.298,587.555,157.298z"/>
				<path fill="#2FB262" d="M595.513,158.543c-0.856,3.338-3.876,5.807-7.48,5.807c-3.702,0-6.793-2.603-7.552-6.076
					c-11.992,3.371-20.846,15.154-20.846,29.603h55.842C615.477,173.786,607.054,162.235,595.513,158.543z"/>
				<g>
					<g>
						<path fill="#FFFFFF" d="M595.578,158.48l-7.54,30.294h27.438v-6.32C615.477,170.619,606.93,160.746,595.578,158.48z"/>
						<path fill="#FFFFFF" d="M559.699,182.455v6.32h28.339l-8.698-30.237C568.116,160.898,559.699,170.707,559.699,182.455z"/>
					</g>
					<g>
						<ellipse fill="#FEE1B9" cx="588.039" cy="125.128" rx="22.572" ry="25.688"/>
						<polygon fill="#FEE1B9" points="592.963,159.141 587.421,160.839 582.148,159.141 582.148,145.868 592.963,145.868 						"/>
						<g>
							<g>
								<path fill="none" stroke="#FDBD13" stroke-width="1.0609" stroke-miterlimit="10" d="M582.257,123.03
									c0,0-3.438-3.546-7.81,0"/>
								<g>
									<path fill="#231F20" d="M579.268,125.8c0-0.506-0.407-0.915-0.915-0.915c-0.506,0-0.913,0.409-0.913,0.915
										c0,0.504,0.407,0.913,0.913,0.913C578.86,126.713,579.268,126.304,579.268,125.8z"/>
									<path fill="#231F20" d="M578.353,127.042c-0.684,0-1.24-0.558-1.24-1.242c0-0.686,0.557-1.242,1.24-1.242
										c0.687,0,1.242,0.556,1.242,1.242C579.595,126.484,579.039,127.042,578.353,127.042z M578.353,125.212
										c-0.322,0-0.586,0.264-0.586,0.588c0,0.322,0.264,0.586,0.586,0.586c0.324,0,0.588-0.264,0.588-0.586
										C578.94,125.476,578.677,125.212,578.353,125.212z"/>
								</g>
							</g>
							<g>
								<path fill="none" stroke="#FDBD13" stroke-width="1.0609" stroke-miterlimit="10" d="M593.818,123.03
									c0,0,3.438-3.546,7.807,0"/>
								<g>
									<circle fill="#231F20" cx="597.723" cy="125.8" r="0.915"/>
									<path fill="#231F20" d="M597.722,127.042c-0.684,0-1.24-0.558-1.24-1.242c0-0.686,0.557-1.242,1.24-1.242
										c0.687,0,1.244,0.556,1.244,1.242C598.966,126.484,598.408,127.042,597.722,127.042z M597.722,125.212
										c-0.322,0-0.586,0.264-0.586,0.588c0,0.322,0.264,0.586,0.586,0.586c0.324,0,0.588-0.264,0.588-0.586
										C598.31,125.476,598.046,125.212,597.722,125.212z"/>
								</g>
							</g>
						</g>
					</g>
					<path fill="#FFFFFF" d="M587.955,143.644c2.586,0,4.683-1.793,4.683-4.007h-9.363
						C583.274,141.85,585.369,143.644,587.955,143.644z"/>
					<path fill="#FEE1B9" d="M561.78,129.061c-0.353-3.469,1.535-6.573,4.219-6.936c2.683-0.361,5.141,2.155,5.495,5.622
						c0.353,3.47-1.538,6.574-4.218,6.936C564.595,135.048,562.134,132.53,561.78,129.061z"/>
					<path fill="#FEE1B9" d="M609.266,134.696c-2.672-0.297-4.477-3.358-4.025-6.833c0.447-3.478,2.979-6.061,5.652-5.764
						c2.671,0.296,4.475,3.354,4.023,6.834C614.467,132.412,611.938,134.991,609.266,134.696z"/>
				</g>
				<path fill="#F1F2F2" d="M588.025,188.774l11.857-18.552l-3.589-1.711l5.709-1.631l2.414-4.766c0,0-3.886-2.994-8.852-3.558
					C594.229,163.848,588.025,188.774,588.025,188.774z"/>
				<path fill="#F1F2F2" d="M588.025,188.774l-11.856-18.552l3.588-1.711l-5.708-1.631l-2.554-5.33c0,0,3.853-2.378,8.852-3.558
					C581.683,163.284,588.025,188.774,588.025,188.774z"/>
				<path fill="#FDBD13" d="M603.662,115.125c0,0,5.331,9.616,3.617,16.421c4.159-5.341,6.261-12.588,6.261-12.588l-4.019-10.407
					L603.662,115.125z"/>
				<path fill="#FDBD13" d="M574.164,112.948c0,0-6.607,5.51-4.293,17.007c-4.158-5.339-5.428-13.102-5.428-13.102l3.187-9.891
					L574.164,112.948z"/>
				<path fill="#FDBD13" d="M610.898,108.552c0,0,0.143-16.279-14.304-18.114c-10.478-1.331-16.377,9.023-30.285,1.137
					c0.115,10.789,2.84,22.327,14.489,23.826c11.648,1.496,16.311-1.999,23.146,0.262
					C605.807,111.489,610.898,108.552,610.898,108.552z"/>
				<path fill="#FDBD13" d="M565.913,122.586c0,0-5.607-13.217,3.443-19.534c6.299,6.527,6.421,9.036,6.421,9.036
					S570.045,114.271,565.913,122.586z"/>
				<path fill="#FDBD13" d="M612.624,121.616c0,0,6.306-13.063-4.245-19.956c-6.299,6.528-6.421,9.035-6.421,9.035
					S608.493,113.299,612.624,121.616z"/>
			</g>
		</g>
	</g>
	<g id="accountingman">
		<circle fill="#F9B44D" cx="592.975" cy="347.22" r="52.888"/>
		<g>
			<path fill="#1B5E8F" d="M634.68,342.158h-18.202c-0.922,0-1.671,0.749-1.671,1.669v24.61c0,0.923,0.749,1.671,1.671,1.671h18.202
				c0.922,0,1.671-0.748,1.671-1.671v-24.61C636.351,342.907,635.602,342.158,634.68,342.158z"/>
			<path fill="#103754" d="M634.68,342.158h-18.202c-0.922,0-1.671,0.749-1.671,1.669v8.008h21.544v-8.008
				C636.351,342.907,635.602,342.158,634.68,342.158z"/>
			<g>
				<g>
					<path fill="#103754" d="M634.119,362.225c0,0.31-0.248,0.557-0.557,0.557h-3.248c-0.305,0-0.557-0.247-0.557-0.557v-2.138
						c0-0.308,0.252-0.558,0.557-0.558h3.248c0.309,0,0.557,0.25,0.557,0.558V362.225z"/>
				</g>
				<g>
					<path fill="#FFFFFF" d="M621.397,366.861c0,0.308-0.249,0.557-0.556,0.557h-3.249c-0.308,0-0.558-0.249-0.558-0.557v-2.14
						c0-0.308,0.25-0.559,0.558-0.559h3.249c0.307,0,0.556,0.251,0.556,0.559V366.861z"/>
					<path fill="#FFFFFF" d="M621.397,361.661c0,0.31-0.249,0.557-0.556,0.557h-3.249c-0.308,0-0.558-0.247-0.558-0.557v-2.139
						c0-0.307,0.25-0.558,0.558-0.558h3.249c0.307,0,0.556,0.251,0.556,0.558V361.661z"/>
					<path fill="#FFFFFF" d="M621.397,356.462c0,0.308-0.249,0.557-0.556,0.557h-3.249c-0.308,0-0.558-0.249-0.558-0.557v-2.137
						c0-0.308,0.25-0.559,0.558-0.559h3.249c0.307,0,0.556,0.251,0.556,0.559V356.462z"/>
					<path fill="#FFFFFF" d="M627.76,366.861c0,0.308-0.25,0.557-0.559,0.557h-3.248c-0.306,0-0.558-0.249-0.558-0.557v-2.14
						c0-0.308,0.252-0.559,0.558-0.559h3.248c0.309,0,0.559,0.251,0.559,0.559V366.861z"/>
					<path fill="#FFFFFF" d="M627.76,361.661c0,0.31-0.25,0.557-0.559,0.557h-3.248c-0.306,0-0.558-0.247-0.558-0.557v-2.139
						c0-0.307,0.252-0.558,0.558-0.558h3.248c0.309,0,0.559,0.251,0.559,0.558V361.661z"/>
					<path fill="#FFFFFF" d="M627.76,356.462c0,0.308-0.25,0.557-0.559,0.557h-3.248c-0.306,0-0.558-0.249-0.558-0.557v-2.137
						c0-0.308,0.252-0.559,0.558-0.559h3.248c0.309,0,0.559,0.251,0.559,0.559V356.462z"/>
					<path fill="#FD6120" d="M634.119,366.861c0,0.308-0.248,0.557-0.557,0.557h-3.248c-0.305,0-0.557-0.249-0.557-0.557v-5.971
						c0-0.308,0.252-0.559,0.557-0.559h3.248c0.309,0,0.557,0.251,0.557,0.559V366.861z"/>
					<path fill="#FD6120" d="M634.119,361.661c0,0.31-0.248,0.557-0.557,0.557h-3.248c-0.305,0-0.557-0.247-0.557-0.557v-2.139
						c0-0.307,0.252-0.558,0.557-0.558h3.248c0.309,0,0.557,0.251,0.557,0.558V361.661z"/>
					<path fill="#FFFFFF" d="M634.119,356.462c0,0.308-0.248,0.557-0.557,0.557h-3.248c-0.305,0-0.557-0.249-0.557-0.557v-2.137
						c0-0.308,0.252-0.559,0.557-0.559h3.248c0.309,0,0.557,0.251,0.557,0.559V356.462z"/>
				</g>
			</g>
			<path fill="#D1ECFB" d="M634.119,349.522c0,0.31-0.248,0.557-0.557,0.557h-15.97c-0.308,0-0.558-0.247-0.558-0.557v-4.579
				c0-0.309,0.25-0.558,0.558-0.558h15.97c0.309,0,0.557,0.249,0.557,0.558V349.522z"/>
		</g>
		<g>
			<defs>
				<circle id="SVGID_18_" cx="592.975" cy="347.22" r="52.888"/>
			</defs>
			<clipPath id="SVGID_19_">
				<use xlink:href="#SVGID_18_"  overflow="visible"/>
			</clipPath>
			<g clip-path="url(#SVGID_19_)">
				<path fill="#FEE1B9" d="M585.134,368.404c-15.532,0-28.127,13.506-28.127,30.802h56.252
					C613.259,381.91,600.664,368.404,585.134,368.404z"/>
				<path fill="#FFFFFF" d="M613.259,400.109v-6.365c0-13.609-11.214-24.642-25.046-24.642h-6.093
					c-13.833,0-25.047,11.032-25.047,24.642v6.365H613.259z"/>
				<polyline fill="#FFFFFF" points="576.78,369.677 585.62,400.109 593.215,369.595 				"/>
				<polygon fill="#35496C" points="586.667,377.619 588.779,375.361 584.997,371.971 582.447,375.361 584.559,377.619 
					581.855,393.139 585.613,400.109 589.456,393.563 				"/>
				<g>
					<ellipse fill="#FEE1B9" cx="585.62" cy="335.998" rx="22.737" ry="25.877"/>
					<polygon fill="#FEE1B9" points="590.58,370.261 584.997,371.971 579.687,370.261 579.687,356.889 590.58,356.889 					"/>
					<g>
						<g>
							<path fill="none" stroke="#243547" stroke-width="1.0609" stroke-miterlimit="10" d="M579.796,333.885
								c0,0-3.465-3.573-7.866,0"/>
							<g>
								<circle fill="#231F20" cx="575.864" cy="336.673" r="0.921"/>
								<path fill="#231F20" d="M575.863,337.927c-0.69,0-1.251-0.563-1.251-1.254c0-0.689,0.561-1.249,1.251-1.249
									s1.251,0.56,1.251,1.249C577.114,337.364,576.554,337.927,575.863,337.927z M575.863,336.083
									c-0.327,0-0.592,0.265-0.592,0.59c0,0.327,0.265,0.592,0.592,0.592c0.326,0,0.591-0.265,0.591-0.592
									C576.454,336.348,576.189,336.083,575.863,336.083z"/>
							</g>
						</g>
						<g>
							<path fill="none" stroke="#243547" stroke-width="1.0609" stroke-miterlimit="10" d="M591.442,333.885
								c0,0,3.463-3.573,7.865,0"/>
							<g>
								<circle fill="#231F20" cx="595.375" cy="336.673" r="0.921"/>
								<path fill="#231F20" d="M595.375,337.927c-0.689,0-1.251-0.563-1.251-1.254c0-0.689,0.562-1.249,1.251-1.249
									s1.251,0.56,1.251,1.249C596.626,337.364,596.064,337.927,595.375,337.927z M595.375,336.083
									c-0.326,0-0.592,0.265-0.592,0.59c0,0.327,0.266,0.592,0.592,0.592s0.591-0.265,0.591-0.592
									C595.966,336.348,595.701,336.083,595.375,336.083z"/>
							</g>
						</g>
					</g>
				</g>
				<path fill="#FFFFFF" d="M585.536,354.649c2.605,0,4.715-1.807,4.715-4.036h-9.43
					C580.821,352.843,582.931,354.649,585.536,354.649z"/>
				<path fill="#FEE1B9" d="M559.17,339.958c-0.356-3.493,1.546-6.62,4.249-6.984c2.701-0.364,5.179,2.171,5.535,5.662
					c0.354,3.495-1.549,6.621-4.248,6.986C562.004,345.99,559.525,343.454,559.17,339.958z"/>
				<path fill="#FEE1B9" d="M607.003,345.637c-2.693-0.3-4.511-3.383-4.056-6.883c0.45-3.504,3.001-6.105,5.694-5.807
					c2.689,0.299,4.506,3.379,4.052,6.883C612.24,343.335,609.693,345.934,607.003,345.637z"/>
				<path fill="#F1F2F2" d="M579.521,368.833l5.473,3.013l5.742-3.013l5.637,1.234l-4.737,8.166l-6.642-6.151l-5.473,5.94
					l-5.614-7.859C573.906,370.163,577.436,368.782,579.521,368.833z"/>
				<path fill="#243547" d="M562.226,335.592c0,0,1.355-8.131,11.705-9.116s18.234-5.298,20.576-10.225
					c6.038,4.064,12.198,8.992,12.69,19.341c4.559-7.022,6.603-25.057-8.676-28.262c-13.554-13.552-28.301-7.87-35.435,1.158
					C552.514,321.869,562.226,335.592,562.226,335.592z"/>
			</g>
		</g>
	</g>
</g>
</svg>
